<?xml version="1.0" standalone="yes"?>

<svg version="1.1" viewBox="0.0 0.0 1205.0 539.0" fill="none" stroke="none" stroke-linecap="square" stroke-miterlimit="10" xmlns="http://www.w3.org/2000/svg" xmlns:xlink="http://www.w3.org/1999/xlink"><clipPath id="p.0"><path d="m0 0l1205.0 0l0 539.0l-1205.0 0l0 -539.0z" clip-rule="nonzero"></path></clipPath><g clip-path="url(#p.0)"><path fill="#000000" fill-opacity="0.0" d="m0 0l1205.2179 0l0 539.58795l-1205.2179 0z" fill-rule="nonzero"></path><path fill="#d9d2e9" d="m1025.1969 49.095802l0 0c0 6.755703 21.90625 12.232281 48.929077 12.232281c27.022827 0 48.9292 -5.4765778 48.9292 -12.232281l0 105.70866c0 6.755707 -21.906372 12.232285 -48.9292 12.232285c-27.022827 0 -48.929077 -5.4765778 -48.929077 -12.232285z" fill-rule="nonzero"></path><path fill="#e8e4f1" d="m1025.1969 49.095802l0 0c0 -6.755707 21.90625 -12.232285 48.929077 -12.232285c27.022827 0 48.9292 5.4765778 48.9292 12.232285l0 0c0 6.755703 -21.906372 12.232281 -48.9292 12.232281c-27.022827 0 -48.929077 -5.4765778 -48.929077 -12.232281z" fill-rule="nonzero"></path><path fill="#000000" fill-opacity="0.0" d="m1123.0552 49.095802l0 0c0 6.755703 -21.906372 12.232281 -48.9292 12.232281c-27.022827 0 -48.929077 -5.4765778 -48.929077 -12.232281l0 0c0 -6.755707 21.90625 -12.232285 48.929077 -12.232285c27.022827 0 48.9292 5.4765778 48.9292 12.232285l0 105.70866c0 6.755707 -21.906372 12.232285 -48.9292 12.232285c-27.022827 0 -48.929077 -5.4765778 -48.929077 -12.232285l0 -105.70866" fill-rule="nonzero"></path><path stroke="#000000" stroke-width="2.0" stroke-linejoin="round" stroke-linecap="butt" d="m1123.0552 49.095802l0 0c0 6.755703 -21.906372 12.232281 -48.9292 12.232281c-27.022827 0 -48.929077 -5.4765778 -48.929077 -12.232281l0 0c0 -6.755707 21.90625 -12.232285 48.929077 -12.232285c27.022827 0 48.9292 5.4765778 48.9292 12.232285l0 105.70866c0 6.755707 -21.906372 12.232285 -48.9292 12.232285c-27.022827 0 -48.929077 -5.4765778 -48.929077 -12.232285l0 -105.70866" fill-rule="nonzero"></path><path fill="#000000" d="m1054.9784 96.86627l0 -9.3125l1.21875 0l0 9.3125l-1.21875 0zm3.4685059 0l0 -9.3125l1.265625 0l4.890625 7.3125l0 -7.3125l1.1875 0l0 9.3125l-1.265625 0l-4.890625 -7.3125l0 7.3125l-1.1875 0zm9.640869 0l0 -9.3125l3.203125 0q1.09375 0 1.65625 0.140625q0.8125 0.1875 1.375 0.671875q0.734375 0.609375 1.09375 1.578125q0.375 0.96875 0.375 2.21875q0 1.0625 -0.25 1.890625q-0.25 0.8125 -0.640625 1.34375q-0.390625 0.53125 -0.859375 0.84375q-0.453125 0.3125 -1.109375 0.46875q-0.640625 0.15625 -1.484375 0.15625l-3.359375 0zm1.234375 -1.09375l1.984375 0q0.921875 0 1.4375 -0.171875q0.53125 -0.171875 0.84375 -0.484375q0.4375 -0.4375 0.671875 -1.171875q0.25 -0.75 0.25 -1.796875q0 -1.46875 -0.484375 -2.25q-0.46875 -0.78125 -1.15625 -1.046875q-0.5 -0.1875 -1.59375 -0.1875l-1.953125 0l0 7.109375zm8.421997 1.09375l0 -9.3125l6.71875 0l0 1.109375l-5.484375 0l0 2.84375l5.140625 0l0 1.09375l-5.140625 0l0 3.171875l5.703125 0l0 1.09375l-6.9375 0zm7.9210205 0l3.59375 -4.84375l-3.171875 -4.46875l1.46875 0l1.6875 2.390625q0.53125 0.75 0.75 1.140625q0.3125 -0.5 0.734375 -1.0625l1.875 -2.46875l1.328125 0l-3.265625 4.390625l3.53125 4.921875l-1.53125 0l-2.34375 -3.3125q-0.1875 -0.296875 -0.40625 -0.625q-0.3125 0.5 -0.4375 0.6875l-2.34375 3.25l-1.46875 0z" fill-rule="nonzero"></path><path fill="#000000" d="m1065.8685 112.86627l0 -9.3125l3.203125 0q1.09375 0 1.65625 0.140625q0.8125 0.1875 1.375 0.671875q0.734375 0.609375 1.09375 1.578125q0.375 0.96875 0.375 2.21875q0 1.0625 -0.25 1.890625q-0.25 0.8125 -0.640625 1.34375q-0.390625 0.53125 -0.859375 0.84375q-0.453125 0.3125 -1.109375 0.46875q-0.640625 0.15625 -1.484375 0.15625l-3.359375 0zm1.234375 -1.09375l1.984375 0q0.921875 0 1.4375 -0.171875q0.53125 -0.171875 0.84375 -0.484375q0.4375 -0.4375 0.671875 -1.171875q0.25 -0.75 0.25 -1.796875q0 -1.46875 -0.484375 -2.25q-0.46875 -0.78125 -1.15625 -1.046875q-0.5 -0.1875 -1.59375 -0.1875l-1.953125 0l0 7.109375zm8.343872 1.09375l0 -9.3125l3.484375 0q1.078125 0 1.71875 0.296875q0.640625 0.28125 1.0 0.875q0.375 0.578125 0.375 1.21875q0 0.59375 -0.328125 1.125q-0.328125 0.515625 -0.96875 0.84375q0.84375 0.25 1.296875 0.84375q0.453125 0.59375 0.453125 1.40625q0 0.65625 -0.28125 1.21875q-0.28125 0.5625 -0.6875 0.875q-0.40625 0.296875 -1.015625 0.453125q-0.609375 0.15625 -1.5 0.15625l-3.546875 0zm1.234375 -5.390625l2.015625 0q0.8125 0 1.171875 -0.109375q0.46875 -0.140625 0.703125 -0.46875q0.234375 -0.328125 0.234375 -0.8125q0 -0.46875 -0.21875 -0.8125q-0.21875 -0.359375 -0.640625 -0.484375q-0.40625 -0.125 -1.40625 -0.125l-1.859375 0l0 2.8125zm0 4.296875l2.3125 0q0.59375 0 0.84375 -0.046875q0.421875 -0.078125 0.703125 -0.25q0.28125 -0.1875 0.46875 -0.515625q0.1875 -0.34375 0.1875 -0.796875q0 -0.515625 -0.265625 -0.890625q-0.265625 -0.390625 -0.75 -0.546875q-0.46875 -0.15625 -1.359375 -0.15625l-2.140625 0l0 3.203125z" fill-rule="nonzero"></path><path fill="#000000" d="m1047.9199 131.60065q-0.953125 -1.1875 -1.609375 -2.78125q-0.65625 -1.6093674 -0.65625 -3.3281174q0 -1.5 0.5 -2.890625q0.5625 -1.609375 1.765625 -3.203125l0.8125 0q-0.765625 1.328125 -1.015625 1.890625q-0.390625 0.875 -0.609375 1.828125q-0.265625 1.1875 -0.265625 2.390625q0 3.0468674 1.890625 6.0937424l-0.8125 0zm2.3914795 -2.734375l0 -9.312492l3.203125 0q1.09375 0 1.65625 0.140625q0.8125 0.1875 1.375 0.671875q0.734375 0.609375 1.09375 1.578125q0.375 0.96875 0.375 2.21875q0 1.0625 -0.25 1.890625q-0.25 0.8125 -0.640625 1.34375q-0.390625 0.53125 -0.859375 0.8437424q-0.453125 0.3125 -1.109375 0.46875q-0.640625 0.15625 -1.484375 0.15625l-3.359375 0zm1.234375 -1.0937424l1.984375 0q0.921875 0 1.4375 -0.171875q0.53125 -0.171875 0.84375 -0.484375q0.4375 -0.4375 0.671875 -1.171875q0.25 -0.75 0.25 -1.796875q0 -1.46875 -0.484375 -2.25q-0.46875 -0.78125 -1.15625 -1.046875q-0.5 -0.1875 -1.59375 -0.1875l-1.953125 0l0 7.109375zm8.203369 3.6874924l-0.140625 -1.0625q0.375 0.09375 0.65625 0.09375q0.390625 0 0.609375 -0.125q0.234375 -0.125 0.375 -0.359375q0.109375 -0.171875 0.359375 -0.84375q0.03125 -0.09375 0.09375 -0.28125l-2.5625 -6.7499924l1.234375 0l1.40625 3.890625q0.265625 0.75 0.484375 1.5625q0.203125 -0.78125 0.46875 -1.53125l1.453125 -3.921875l1.140625 0l-2.5625 6.8437424q-0.421875 1.109375 -0.640625 1.53125q-0.3125 0.5625 -0.703125 0.828125q-0.390625 0.265625 -0.9375 0.265625q-0.328125 0 -0.734375 -0.140625zm6.7109375 -2.59375l0 -6.7343674l1.03125 0l0 0.953125q0.734375 -1.109375 2.140625 -1.109375q0.609375 0 1.109375 0.21875q0.515625 0.21875 0.765625 0.578125q0.265625 0.34375 0.359375 0.84375q0.0625 0.3125 0.0625 1.109375l0 4.1406174l-1.140625 0l0 -4.0937424q0 -0.703125 -0.140625 -1.046875q-0.125 -0.34375 -0.46875 -0.546875q-0.328125 -0.21875 -0.78125 -0.21875q-0.734375 0 -1.265625 0.46875q-0.53125 0.453125 -0.53125 1.75l0 3.6874924l-1.140625 0zm11.803101 -0.828125q-0.625 0.53125 -1.21875 0.765625q-0.578125 0.21875 -1.25 0.21875q-1.125 0 -1.71875 -0.546875q-0.59375 -0.5468674 -0.59375 -1.3906174q0 -0.484375 0.21875 -0.890625q0.234375 -0.421875 0.59375 -0.671875q0.375 -0.25 0.828125 -0.375q0.328125 -0.078125 1.015625 -0.171875q1.375 -0.15625 2.03125 -0.390625q0.015625 -0.234375 0.015625 -0.296875q0 -0.703125 -0.328125 -0.984375q-0.4375 -0.390625 -1.296875 -0.390625q-0.8125 0 -1.203125 0.28125q-0.375 0.28125 -0.5625 1.0l-1.109375 -0.140625q0.140625 -0.71875 0.484375 -1.15625q0.359375 -0.453125 1.015625 -0.6875q0.671875 -0.234375 1.53125 -0.234375q0.875 0 1.40625 0.203125q0.546875 0.203125 0.796875 0.515625q0.25 0.296875 0.359375 0.765625q0.046875 0.296875 0.046875 1.0625l0 1.515625q0 1.59375 0.078125 2.0156174q0.078125 0.421875 0.28125 0.8125l-1.1875 0q-0.171875 -0.359375 -0.234375 -0.828125zm-0.09375 -2.5624924q-0.625 0.265625 -1.859375 0.4375q-0.703125 0.109375 -1.0 0.234375q-0.296875 0.125 -0.453125 0.375q-0.15625 0.234375 -0.15625 0.53125q0 0.453125 0.34375 0.765625q0.34375 0.29686737 1.015625 0.29686737q0.65625 0 1.171875 -0.28124237q0.515625 -0.296875 0.765625 -0.796875q0.171875 -0.375 0.171875 -1.140625l0 -0.421875zm3.1156006 3.3906174l0 -6.7343674l1.015625 0l0 0.9375q0.328125 -0.5 0.84375 -0.796875q0.53125 -0.296875 1.203125 -0.296875q0.75 0 1.21875 0.3125q0.484375 0.3125 0.6875 0.859375q0.796875 -1.171875 2.078125 -1.171875q1.0 0 1.53125 0.5625q0.546875 0.546875 0.546875 1.703125l0 4.6249924l-1.125 0l0 -4.2499924q0 -0.6875 -0.109375 -0.984375q-0.109375 -0.296875 -0.40625 -0.484375q-0.296875 -0.1875 -0.6875 -0.1875q-0.71875 0 -1.1875 0.484375q-0.46875 0.46875 -0.46875 1.5l0 3.9218674l-1.140625 0l0 -4.3749924q0 -0.765625 -0.28125 -1.140625q-0.28125 -0.390625 -0.90625 -0.390625q-0.484375 0 -0.890625 0.265625q-0.40625 0.25 -0.59375 0.734375q-0.1875 0.484375 -0.1875 1.40625l0 3.4999924l-1.140625 0zm10.680542 -3.3749924q0 -1.875 1.03125 -2.765625q0.875 -0.75 2.125 -0.75q1.390625 0 2.265625 0.90625q0.890625 0.90625 0.890625 2.515625q0 1.296875 -0.390625 2.046875q-0.390625 0.7499924 -1.140625 1.1718674q-0.75 0.40625 -1.625 0.40625q-1.421875 0 -2.296875 -0.90625q-0.859375 -0.9062424 -0.859375 -2.6249924zm1.171875 0q0 1.296875 0.5625 1.953125q0.5625 0.6406174 1.421875 0.6406174q0.84375 0 1.40625 -0.6406174q0.578125 -0.65625 0.578125 -1.984375q0 -1.25 -0.578125 -1.890625q-0.5625 -0.65625 -1.40625 -0.65625q-0.859375 0 -1.421875 0.640625q-0.5625 0.640625 -0.5625 1.9375zm7.4124756 6.1093674l-0.828125 0q1.90625 -3.046875 1.90625 -6.0937424q0 -1.203125 -0.28125 -2.375q-0.203125 -0.953125 -0.59375 -1.828125q-0.25 -0.5625 -1.03125 -1.90625l0.828125 0q1.1875 1.59375 1.765625 3.203125q0.484375 1.390625 0.484375 2.890625q0 1.71875 -0.65625 3.3281174q-0.65625 1.59375 -1.59375 2.78125z" fill-rule="nonzero"></path><path fill="#d9ead3" d="m73.35783 198.37827l93.504814 0c12.910324 0 23.376205 10.158203 23.376205 22.688965c0 12.530777 -10.465881 22.68898 -23.376205 22.68898l-93.504814 0l0 0c-12.910316 0 -23.376198 -10.158203 -23.376198 -22.68898c0 -12.530762 10.465881 -22.688965 23.376198 -22.688965z" fill-rule="nonzero"></path><path fill="#000000" fill-opacity="0.0" d="m166.86264 243.75621c-12.910324 0 -23.376205 -10.158203 -23.376205 -22.68898c0 -12.530762 10.465881 -22.688965 23.376205 -22.688965" fill-rule="nonzero"></path><path fill="#000000" fill-opacity="0.0" d="m73.35783 198.37827l93.504814 0c12.910324 0 23.376205 10.158203 23.376205 22.688965c0 12.530777 -10.465881 22.68898 -23.376205 22.68898l-93.504814 0l0 0c-12.910316 0 -23.376198 -10.158203 -23.376198 -22.68898c0 -12.530762 10.465881 -22.688965 23.376198 -22.688965z" fill-rule="nonzero"></path><path stroke="#000000" stroke-width="2.0" stroke-linejoin="round" stroke-linecap="butt" d="m166.86264 243.75621c-12.910324 0 -23.376205 -10.158203 -23.376205 -22.68898c0 -12.530762 10.465881 -22.688965 23.376205 -22.688965" fill-rule="nonzero"></path><path stroke="#000000" stroke-width="2.0" stroke-linejoin="round" stroke-linecap="butt" d="m73.35783 198.37827l93.504814 0c12.910324 0 23.376205 10.158203 23.376205 22.688965c0 12.530777 -10.465881 22.68898 -23.376205 22.68898l-93.504814 0l0 0c-12.910316 0 -23.376198 -10.158203 -23.376198 -22.68898c0 -12.530762 10.465881 -22.688965 23.376198 -22.688965z" fill-rule="nonzero"></path><path fill="#000000" d="m83.42033 225.86723l0 -9.3125l6.28125 0l0 1.109375l-5.046875 0l0 2.875l4.375 0l0 1.09375l-4.375 0l0 4.234375l-1.234375 0zm8.110107 0l0 -9.3125l6.71875 0l0 1.109375l-5.484375 0l0 2.84375l5.140625 0l0 1.09375l-5.140625 0l0 3.171875l5.703125 0l0 1.09375l-6.9375 0zm11.233505 0l0 -8.203125l-3.0625 0l0 -1.109375l7.375 0l0 1.109375l-3.078125 0l0 8.203125l-1.234375 0zm12.406982 -3.265625l1.234375 0.3125q-0.390625 1.515625 -1.40625 2.3125q-1.0 0.796875 -2.453125 0.796875q-1.5 0 -2.453125 -0.609375q-0.9375 -0.609375 -1.4375 -1.765625q-0.484375 -1.171875 -0.484375 -2.5q0 -1.453125 0.5625 -2.53125q0.5625 -1.09375 1.578125 -1.65625q1.03125 -0.5625 2.265625 -0.5625q1.390625 0 2.34375 0.71875q0.953125 0.703125 1.328125 2.0l-1.21875 0.28125q-0.328125 -1.015625 -0.9375 -1.46875q-0.609375 -0.46875 -1.546875 -0.46875q-1.078125 0 -1.796875 0.515625q-0.71875 0.515625 -1.015625 1.375q-0.28125 0.859375 -0.28125 1.78125q0 1.1875 0.34375 2.078125q0.34375 0.890625 1.0625 1.328125q0.734375 0.4375 1.59375 0.4375q1.03125 0 1.75 -0.59375q0.71875 -0.609375 0.96875 -1.78125zm3.0314026 3.265625l0 -9.3125l1.21875 0l0 3.828125l4.84375 0l0 -3.828125l1.234375 0l0 9.3125l-1.234375 0l0 -4.390625l-4.84375 0l0 4.390625l-1.21875 0z" fill-rule="nonzero"></path><path fill="#fce5cd" d="m227.55643 36.863518l97.85828 0l0 368.40945l-97.85828 0z" fill-rule="nonzero"></path><path stroke="#000000" stroke-width="2.0" stroke-linejoin="round" stroke-linecap="butt" d="m227.55643 36.863518l97.85828 0l0 368.40945l-97.85828 0z" fill-rule="nonzero"></path><path fill="#000000" d="m255.33667 58.663517l0 -9.3125l6.28125 0l0 1.109375l-5.046875 0l0 2.875l4.375 0l0 1.09375l-4.375 0l0 4.234375l-1.234375 0zm8.110107 0l0 -9.3125l6.71875 0l0 1.109375l-5.484375 0l0 2.84375l5.140625 0l0 1.09375l-5.140625 0l0 3.171875l5.703125 0l0 1.09375l-6.9375 0zm11.2335205 0l0 -8.203125l-3.0625 0l0 -1.109375l7.375 0l0 1.109375l-3.078125 0l0 8.203125l-1.234375 0zm12.406982 -3.265625l1.234375 0.3125q-0.390625 1.515625 -1.40625 2.3125q-1.0 0.796875 -2.453125 0.796875q-1.5 0 -2.453125 -0.609375q-0.9375 -0.609375 -1.4375 -1.765625q-0.484375 -1.171875 -0.484375 -2.5q0 -1.453125 0.5625 -2.53125q0.5625 -1.09375 1.578125 -1.65625q1.03125 -0.5625 2.265625 -0.5625q1.390625 0 2.34375 0.71875q0.953125 0.703125 1.328125 2.0l-1.21875 0.28125q-0.328125 -1.015625 -0.9375 -1.46875q-0.609375 -0.46875 -1.546875 -0.46875q-1.078125 0 -1.796875 0.515625q-0.71875 0.515625 -1.015625 1.375q-0.28125 0.859375 -0.28125 1.78125q0 1.1875 0.34375 2.078125q0.34375 0.890625 1.0625 1.328125q0.734375 0.4375 1.59375 0.4375q1.03125 0 1.75 -0.59375q0.71875 -0.609375 0.96875 -1.78125zm3.0314026 3.265625l0 -9.3125l1.21875 0l0 3.828125l4.84375 0l0 -3.828125l1.234375 0l0 9.3125l-1.234375 0l0 -4.390625l-4.84375 0l0 4.390625l-1.21875 0z" fill-rule="nonzero"></path><path fill="#cfe2f3" d="m249.35432 75.07087l51.622055 0l0 51.622047l-51.622055 0z" fill-rule="nonzero"></path><path stroke="#000000" stroke-width="2.0" stroke-linejoin="round" stroke-linecap="butt" d="m249.35432 75.07087l51.622055 0l0 51.622047l-51.622055 0z" fill-rule="nonzero"></path><path fill="#cfe2f3" d="m249.35432 139.33333l51.622055 0l0 51.622055l-51.622055 0z" fill-rule="nonzero"></path><path stroke="#000000" stroke-width="2.0" stroke-linejoin="round" stroke-linecap="butt" d="m249.35432 139.33333l51.622055 0l0 51.622055l-51.622055 0z" fill-rule="nonzero"></path><path fill="#cfe2f3" d="m249.35432 203.5958l51.622055 0l0 51.622055l-51.622055 0z" fill-rule="nonzero"></path><path stroke="#000000" stroke-width="2.0" stroke-linejoin="round" stroke-linecap="butt" d="m249.35432 203.5958l51.622055 0l0 51.622055l-51.622055 0z" fill-rule="nonzero"></path><path fill="#cfe2f3" d="m249.35432 332.12073l51.622055 0l0 51.62207l-51.622055 0z" fill-rule="nonzero"></path><path stroke="#000000" stroke-width="2.0" stroke-linejoin="round" stroke-linecap="butt" d="m249.35432 332.12073l51.622055 0l0 51.62207l-51.622055 0z" fill-rule="nonzero"></path><path fill="#000000" fill-opacity="0.0" d="m328.7874 251.02887l0 87.46457l-79.43309 0l0 -87.46457z" fill-rule="nonzero"></path><path fill="#000000" d="m273.7074 264.38824l4.8125 0l0 4.8125l-4.8125 0l0 -4.8125zm0 26.671875l4.8125 0l0 4.8125l-4.8125 0l0 -4.8125zm0 26.671875l4.8125 0l0 4.8125l-4.8125 0l0 -4.8125z" fill-rule="nonzero"></path><path fill="#d9ead3" d="m389.4799 247.10399l93.50479 0c12.910339 0 23.37622 10.158188 23.37622 22.68898c0 12.530762 -10.465881 22.688965 -23.37622 22.688965l-93.50479 0l0 0c-12.910339 0 -23.37622 -10.158203 -23.37622 -22.688965c0 -12.530792 10.465881 -22.68898 23.37622 -22.68898z" fill-rule="nonzero"></path><path fill="#000000" fill-opacity="0.0" d="m482.98468 292.48193c-12.910309 0 -23.37619 -10.158203 -23.37619 -22.688965c0 -12.530792 10.465881 -22.68898 23.37619 -22.68898" fill-rule="nonzero"></path><path fill="#000000" fill-opacity="0.0" d="m389.4799 247.10399l93.50479 0c12.910339 0 23.37622 10.158188 23.37622 22.68898c0 12.530762 -10.465881 22.688965 -23.37622 22.688965l-93.50479 0l0 0c-12.910339 0 -23.37622 -10.158203 -23.37622 -22.688965c0 -12.530792 10.465881 -22.68898 23.37622 -22.68898z" fill-rule="nonzero"></path><path stroke="#000000" stroke-width="2.0" stroke-linejoin="round" stroke-linecap="butt" d="m482.98468 292.48193c-12.910309 0 -23.37619 -10.158203 -23.37619 -22.688965c0 -12.530792 10.465881 -22.68898 23.37619 -22.68898" fill-rule="nonzero"></path><path stroke="#000000" stroke-width="2.0" stroke-linejoin="round" stroke-linecap="butt" d="m389.4799 247.10399l93.50479 0c12.910339 0 23.37622 10.158188 23.37622 22.68898c0 12.530762 -10.465881 22.688965 -23.37622 22.688965l-93.50479 0l0 0c-12.910339 0 -23.37622 -10.158203 -23.37622 -22.688965c0 -12.530792 10.465881 -22.68898 23.37622 -22.68898z" fill-rule="nonzero"></path><path fill="#000000" d="m399.4799 274.59296l0 -9.3125l3.515625 0q0.921875 0 1.40625 0.09375q0.6875 0.109375 1.15625 0.4375q0.46875 0.3125 0.75 0.890625q0.28125 0.578125 0.28125 1.28125q0 1.1875 -0.765625 2.015625q-0.75 0.8125 -2.71875 0.8125l-2.390625 0l0 3.78125l-1.234375 0zm1.234375 -4.875l2.40625 0q1.1875 0 1.6875 -0.4375q0.515625 -0.453125 0.515625 -1.265625q0 -0.578125 -0.296875 -0.984375q-0.296875 -0.421875 -0.78125 -0.5625q-0.3125 -0.078125 -1.15625 -0.078125l-2.375 0l0 3.328125zm6.63974 4.875l3.578125 -9.3125l1.3125 0l3.8125 9.3125l-1.40625 0l-1.078125 -2.8125l-3.890625 0l-1.03125 2.8125l-1.296875 0zm2.6875 -3.828125l3.15625 0l-0.984375 -2.578125q-0.4375 -1.171875 -0.65625 -1.921875q-0.171875 0.890625 -0.5 1.78125l-1.015625 2.71875zm7.2335205 3.828125l0 -9.3125l4.125 0q1.25 0 1.890625 0.265625q0.65625 0.25 1.046875 0.890625q0.390625 0.625 0.390625 1.390625q0 0.984375 -0.65625 1.671875q-0.640625 0.671875 -1.96875 0.859375q0.484375 0.234375 0.734375 0.46875q0.546875 0.484375 1.03125 1.234375l1.609375 2.53125l-1.546875 0l-1.234375 -1.9375q-0.53125 -0.84375 -0.890625 -1.28125q-0.34375 -0.4375 -0.625 -0.609375q-0.265625 -0.1875 -0.546875 -0.265625q-0.21875 -0.03125 -0.6875 -0.03125l-1.4375 0l0 4.125l-1.234375 0zm1.234375 -5.203125l2.65625 0q0.84375 0 1.3125 -0.171875q0.484375 -0.171875 0.71875 -0.546875q0.25 -0.390625 0.25 -0.84375q0 -0.65625 -0.484375 -1.078125q-0.46875 -0.4375 -1.5 -0.4375l-2.953125 0l0 3.078125zm7.9532776 2.21875l1.171875 -0.109375q0.078125 0.703125 0.375 1.15625q0.3125 0.4375 0.9375 0.71875q0.640625 0.265625 1.4375 0.265625q0.703125 0 1.234375 -0.203125q0.546875 -0.203125 0.8125 -0.5625q0.265625 -0.375 0.265625 -0.8125q0 -0.4375 -0.265625 -0.765625q-0.25 -0.328125 -0.828125 -0.546875q-0.375 -0.140625 -1.65625 -0.453125q-1.28125 -0.3125 -1.796875 -0.578125q-0.671875 -0.34375 -1.0 -0.859375q-0.328125 -0.53125 -0.328125 -1.171875q0 -0.703125 0.390625 -1.3125q0.40625 -0.609375 1.171875 -0.921875q0.78125 -0.328125 1.71875 -0.328125q1.03125 0 1.8125 0.34375q0.796875 0.328125 1.21875 0.984375q0.4375 0.640625 0.46875 1.453125l-1.1875 0.09375q-0.09375 -0.890625 -0.640625 -1.328125q-0.546875 -0.453125 -1.625 -0.453125q-1.109375 0 -1.625 0.40625q-0.515625 0.40625 -0.515625 0.984375q0 0.5 0.359375 0.828125q0.359375 0.328125 1.859375 0.671875q1.5 0.328125 2.0625 0.578125q0.8125 0.375 1.1875 0.953125q0.390625 0.578125 0.390625 1.328125q0 0.734375 -0.421875 1.390625q-0.421875 0.65625 -1.21875 1.03125q-0.796875 0.359375 -1.796875 0.359375q-1.265625 0 -2.125 -0.359375q-0.84375 -0.375 -1.328125 -1.109375q-0.484375 -0.75 -0.515625 -1.671875zm9.342865 2.984375l0 -9.3125l6.71875 0l0 1.109375l-5.484375 0l0 2.84375l5.140625 0l0 1.09375l-5.140625 0l0 3.171875l5.703125 0l0 1.09375l-6.9375 0z" fill-rule="nonzero"></path><path fill="#fce5cd" d="m543.6772 36.863518l97.85828 0l0 368.40945l-97.85828 0z" fill-rule="nonzero"></path><path stroke="#000000" stroke-width="2.0" stroke-linejoin="round" stroke-linecap="butt" d="m543.6772 36.863518l97.85828 0l0 368.40945l-97.85828 0z" fill-rule="nonzero"></path><path fill="#000000" d="m571.0142 58.663517l0 -9.3125l3.515625 0q0.921875 0 1.40625 0.09375q0.6875 0.109375 1.15625 0.4375q0.46875 0.3125 0.75 0.890625q0.28125 0.578125 0.28125 1.28125q0 1.1875 -0.765625 2.015625q-0.75 0.8125 -2.71875 0.8125l-2.390625 0l0 3.78125l-1.234375 0zm1.234375 -4.875l2.40625 0q1.1875 0 1.6875 -0.4375q0.515625 -0.453125 0.515625 -1.265625q0 -0.578125 -0.296875 -0.984375q-0.296875 -0.421875 -0.78125 -0.5625q-0.3125 -0.078125 -1.15625 -0.078125l-2.375 0l0 3.328125zm6.6397705 4.875l3.578125 -9.3125l1.3125 0l3.8125 9.3125l-1.40625 0l-1.078125 -2.8125l-3.890625 0l-1.03125 2.8125l-1.296875 0zm2.6875 -3.828125l3.15625 0l-0.984375 -2.578125q-0.4375 -1.171875 -0.65625 -1.921875q-0.171875 0.890625 -0.5 1.78125l-1.015625 2.71875zm7.2334595 3.828125l0 -9.3125l4.125 0q1.25 0 1.890625 0.265625q0.65625 0.25 1.046875 0.890625q0.390625 0.625 0.390625 1.390625q0 0.984375 -0.65625 1.671875q-0.640625 0.671875 -1.96875 0.859375q0.484375 0.234375 0.734375 0.46875q0.546875 0.484375 1.03125 1.234375l1.609375 2.53125l-1.546875 0l-1.234375 -1.9375q-0.53125 -0.84375 -0.890625 -1.28125q-0.34375 -0.4375 -0.625 -0.609375q-0.265625 -0.1875 -0.546875 -0.265625q-0.21875 -0.03125 -0.6875 -0.03125l-1.4375 0l0 4.125l-1.234375 0zm1.234375 -5.203125l2.65625 0q0.84375 0 1.3125 -0.171875q0.484375 -0.171875 0.71875 -0.546875q0.25 -0.390625 0.25 -0.84375q0 -0.65625 -0.484375 -1.078125q-0.46875 -0.4375 -1.5 -0.4375l-2.953125 0l0 3.078125zm7.953308 2.21875l1.171875 -0.109375q0.078125 0.703125 0.375 1.15625q0.3125 0.4375 0.9375 0.71875q0.640625 0.265625 1.4375 0.265625q0.703125 0 1.234375 -0.203125q0.546875 -0.203125 0.8125 -0.5625q0.265625 -0.375 0.265625 -0.8125q0 -0.4375 -0.265625 -0.765625q-0.25 -0.328125 -0.828125 -0.546875q-0.375 -0.140625 -1.65625 -0.453125q-1.28125 -0.3125 -1.796875 -0.578125q-0.671875 -0.34375 -1.0 -0.859375q-0.328125 -0.53125 -0.328125 -1.171875q0 -0.703125 0.390625 -1.3125q0.40625 -0.609375 1.171875 -0.921875q0.78125 -0.328125 1.71875 -0.328125q1.03125 0 1.8125 0.34375q0.796875 0.328125 1.21875 0.984375q0.4375 0.640625 0.46875 1.453125l-1.1875 0.09375q-0.09375 -0.890625 -0.640625 -1.328125q-0.546875 -0.453125 -1.625 -0.453125q-1.109375 0 -1.625 0.40625q-0.515625 0.40625 -0.515625 0.984375q0 0.5 0.359375 0.828125q0.359375 0.328125 1.859375 0.671875q1.5 0.328125 2.0625 0.578125q0.8125 0.375 1.1875 0.953125q0.390625 0.578125 0.390625 1.328125q0 0.734375 -0.421875 1.390625q-0.421875 0.65625 -1.21875 1.03125q-0.796875 0.359375 -1.796875 0.359375q-1.265625 0 -2.125 -0.359375q-0.84375 -0.375 -1.328125 -1.109375q-0.484375 -0.75 -0.515625 -1.671875zm9.3428955 2.984375l0 -9.3125l6.71875 0l0 1.109375l-5.484375 0l0 2.84375l5.140625 0l0 1.09375l-5.140625 0l0 3.171875l5.703125 0l0 1.09375l-6.9375 0z" fill-rule="nonzero"></path><path fill="#cfe2f3" d="m565.47504 75.07087l51.62207 0l0 51.622047l-51.62207 0z" fill-rule="nonzero"></path><path stroke="#000000" stroke-width="2.0" stroke-linejoin="round" stroke-linecap="butt" d="m565.47504 75.07087l51.62207 0l0 51.622047l-51.62207 0z" fill-rule="nonzero"></path><path fill="#cfe2f3" d="m565.47504 139.33333l51.62207 0l0 51.622055l-51.62207 0z" fill-rule="nonzero"></path><path stroke="#000000" stroke-width="2.0" stroke-linejoin="round" stroke-linecap="butt" d="m565.47504 139.33333l51.62207 0l0 51.622055l-51.62207 0z" fill-rule="nonzero"></path><path fill="#cfe2f3" d="m565.47504 203.5958l51.62207 0l0 51.622055l-51.62207 0z" fill-rule="nonzero"></path><path stroke="#000000" stroke-width="2.0" stroke-linejoin="round" stroke-linecap="butt" d="m565.47504 203.5958l51.62207 0l0 51.622055l-51.62207 0z" fill-rule="nonzero"></path><path fill="#cfe2f3" d="m565.47504 332.12073l51.62207 0l0 51.62207l-51.62207 0z" fill-rule="nonzero"></path><path stroke="#000000" stroke-width="2.0" stroke-linejoin="round" stroke-linecap="butt" d="m565.47504 332.12073l51.62207 0l0 51.62207l-51.62207 0z" fill-rule="nonzero"></path><path fill="#000000" fill-opacity="0.0" d="m644.90814 251.02887l0 87.46457l-79.433105 0l0 -87.46457z" fill-rule="nonzero"></path><path fill="#000000" d="m589.8281 264.38824l4.8125 0l0 4.8125l-4.8125 0l0 -4.8125zm0 26.671875l4.8125 0l0 4.8125l-4.8125 0l0 -4.8125zm0 26.671875l4.8125 0l0 4.8125l-4.8125 0l0 -4.8125z" fill-rule="nonzero"></path><path fill="#d9ead3" d="m705.6006 198.37958l93.50482 0c12.910339 0 23.37622 10.158203 23.37622 22.688965c0 12.530777 -10.465881 22.68898 -23.37622 22.68898l-93.50482 0l0 0c-12.910278 0 -23.37616 -10.158203 -23.37616 -22.68898c0 -12.530762 10.465881 -22.688965 23.37616 -22.688965z" fill-rule="nonzero"></path><path fill="#000000" fill-opacity="0.0" d="m799.1054 243.75752c-12.910278 0 -23.37616 -10.158203 -23.37616 -22.68898c0 -12.530762 10.465881 -22.688965 23.37616 -22.688965" fill-rule="nonzero"></path><path fill="#000000" fill-opacity="0.0" d="m705.6006 198.37958l93.50482 0c12.910339 0 23.37622 10.158203 23.37622 22.688965c0 12.530777 -10.465881 22.68898 -23.37622 22.68898l-93.50482 0l0 0c-12.910278 0 -23.37616 -10.158203 -23.37616 -22.68898c0 -12.530762 10.465881 -22.688965 23.37616 -22.688965z" fill-rule="nonzero"></path><path stroke="#000000" stroke-width="2.0" stroke-linejoin="round" stroke-linecap="butt" d="m799.1054 243.75752c-12.910278 0 -23.37616 -10.158203 -23.37616 -22.68898c0 -12.530762 10.465881 -22.688965 23.37616 -22.688965" fill-rule="nonzero"></path><path stroke="#000000" stroke-width="2.0" stroke-linejoin="round" stroke-linecap="butt" d="m705.6006 198.37958l93.50482 0c12.910339 0 23.37622 10.158203 23.37622 22.688965c0 12.530777 -10.465881 22.68898 -23.37622 22.68898l-93.50482 0l0 0c-12.910278 0 -23.37616 -10.158203 -23.37616 -22.68898c0 -12.530762 10.465881 -22.688965 23.37616 -22.688965z" fill-rule="nonzero"></path><path fill="#000000" d="m715.81934 225.86855l0 -9.3125l1.21875 0l0 9.3125l-1.21875 0zm3.468628 0l0 -9.3125l1.265625 0l4.890625 7.3125l0 -7.3125l1.1875 0l0 9.3125l-1.265625 0l-4.890625 -7.3125l0 7.3125l-1.1875 0zm9.640808 0l0 -9.3125l3.203125 0q1.09375 0 1.65625 0.140625q0.8125 0.1875 1.375 0.671875q0.734375 0.609375 1.09375 1.578125q0.375 0.96875 0.375 2.21875q0 1.0625 -0.25 1.890625q-0.25 0.8125 -0.640625 1.34375q-0.390625 0.53125 -0.859375 0.84375q-0.453125 0.3125 -1.109375 0.46875q-0.640625 0.15625 -1.484375 0.15625l-3.359375 0zm1.234375 -1.09375l1.984375 0q0.921875 0 1.4375 -0.171875q0.53125 -0.171875 0.84375 -0.484375q0.4375 -0.4375 0.671875 -1.171875q0.25 -0.75 0.25 -1.796875q0 -1.46875 -0.484375 -2.25q-0.46875 -0.78125 -1.15625 -1.046875q-0.5 -0.1875 -1.59375 -0.1875l-1.953125 0l0 7.109375zm8.421997 1.09375l0 -9.3125l6.71875 0l0 1.109375l-5.484375 0l0 2.84375l5.140625 0l0 1.09375l-5.140625 0l0 3.171875l5.703125 0l0 1.09375l-6.9375 0zm7.9210205 0l3.59375 -4.84375l-3.171875 -4.46875l1.46875 0l1.6875 2.390625q0.53125 0.75 0.75 1.140625q0.3125 -0.5 0.734375 -1.0625l1.875 -2.46875l1.328125 0l-3.265625 4.390625l3.53125 4.921875l-1.53125 0l-2.34375 -3.3125q-0.1875 -0.296875 -0.40625 -0.625q-0.3125 0.5 -0.4375 0.6875l-2.34375 3.25l-1.46875 0z" fill-rule="nonzero"></path><path fill="#fce5cd" d="m859.7966 36.862206l97.85828 0l0 368.40945l-97.85828 0z" fill-rule="nonzero"></path><path stroke="#000000" stroke-width="2.0" stroke-linejoin="round" stroke-linecap="butt" d="m859.7966 36.862206l97.85828 0l0 368.40945l-97.85828 0z" fill-rule="nonzero"></path><path fill="#000000" d="m889.57806 58.662205l0 -9.3125l1.21875 0l0 9.3125l-1.21875 0zm3.468628 0l0 -9.3125l1.265625 0l4.890625 7.3125l0 -7.3125l1.1875 0l0 9.3125l-1.265625 0l-4.890625 -7.3125l0 7.3125l-1.1875 0zm9.640747 0l0 -9.3125l3.203125 0q1.09375 0 1.65625 0.140625q0.8125 0.1875 1.375 0.671875q0.734375 0.609375 1.09375 1.578125q0.375 0.96875 0.375 2.21875q0 1.0625 -0.25 1.890625q-0.25 0.8125 -0.640625 1.34375q-0.390625 0.53125 -0.859375 0.84375q-0.453125 0.3125 -1.109375 0.46875q-0.640625 0.15625 -1.484375 0.15625l-3.359375 0zm1.234375 -1.09375l1.984375 0q0.921875 0 1.4375 -0.171875q0.53125 -0.171875 0.84375 -0.484375q0.4375 -0.4375 0.671875 -1.171875q0.25 -0.75 0.25 -1.796875q0 -1.46875 -0.484375 -2.25q-0.46875 -0.78125 -1.15625 -1.046875q-0.5 -0.1875 -1.59375 -0.1875l-1.953125 0l0 7.109375zm8.422058 1.09375l0 -9.3125l6.71875 0l0 1.109375l-5.484375 0l0 2.84375l5.140625 0l0 1.09375l-5.140625 0l0 3.171875l5.703125 0l0 1.09375l-6.9375 0zm7.9210205 0l3.59375 -4.84375l-3.171875 -4.46875l1.46875 0l1.6875 2.390625q0.53125 0.75 0.75 1.140625q0.3125 -0.5 0.734375 -1.0625l1.875 -2.46875l1.328125 0l-3.265625 4.390625l3.53125 4.921875l-1.53125 0l-2.34375 -3.3125q-0.1875 -0.296875 -0.40625 -0.625q-0.3125 0.5 -0.4375 0.6875l-2.34375 3.25l-1.46875 0z" fill-rule="nonzero"></path><path fill="#cfe2f3" d="m881.5945 75.06956l51.62207 0l0 51.622047l-51.62207 0z" fill-rule="nonzero"></path><path stroke="#000000" stroke-width="2.0" stroke-linejoin="round" stroke-linecap="butt" d="m881.5945 75.06956l51.62207 0l0 51.622047l-51.62207 0z" fill-rule="nonzero"></path><path fill="#cfe2f3" d="m881.5945 139.33202l51.62207 0l0 51.622055l-51.62207 0z" fill-rule="nonzero"></path><path stroke="#000000" stroke-width="2.0" stroke-linejoin="round" stroke-linecap="butt" d="m881.5945 139.33202l51.62207 0l0 51.622055l-51.62207 0z" fill-rule="nonzero"></path><path fill="#cfe2f3" d="m881.5945 203.59448l51.62207 0l0 51.622055l-51.62207 0z" fill-rule="nonzero"></path><path stroke="#000000" stroke-width="2.0" stroke-linejoin="round" stroke-linecap="butt" d="m881.5945 203.59448l51.62207 0l0 51.622055l-51.62207 0z" fill-rule="nonzero"></path><path fill="#cfe2f3" d="m881.5945 332.11942l51.62207 0l0 51.62207l-51.62207 0z" fill-rule="nonzero"></path><path stroke="#000000" stroke-width="2.0" stroke-linejoin="round" stroke-linecap="butt" d="m881.5945 332.11942l51.62207 0l0 51.62207l-51.62207 0z" fill-rule="nonzero"></path><path fill="#000000" fill-opacity="0.0" d="m961.0276 251.02756l0 87.46457l-79.433105 0l0 -87.46457z" fill-rule="nonzero"></path><path fill="#000000" d="m905.9476 264.38693l4.8125 0l0 4.8125l-4.8125 0l0 -4.8125zm0 26.671875l4.8125 0l0 4.8125l-4.8125 0l0 -4.8125zm0 26.671875l4.8125 0l0 4.8125l-4.8125 0l0 -4.8125z" fill-rule="nonzero"></path><path fill="#000000" fill-opacity="0.0" d="m300.97638 100.88189l65.13385 168.91339" fill-rule="nonzero"></path><path stroke="#000000" stroke-width="2.0" stroke-linejoin="round" stroke-linecap="butt" d="m300.97638 100.88189l60.816467 157.71695" fill-rule="evenodd"></path><path fill="#000000" stroke="#000000" stroke-width="2.0" stroke-linecap="butt" d="m358.71057 259.78738l6.3477173 7.2798767l-0.18319702 -9.656952z" fill-rule="evenodd"></path><path fill="#000000" fill-opacity="0.0" d="m300.97638 165.14436l65.13385 104.66142" fill-rule="nonzero"></path><path stroke="#000000" stroke-width="2.0" stroke-linejoin="round" stroke-linecap="butt" d="m300.97638 165.14436l58.793427 94.47322" fill-rule="evenodd"></path><path fill="#000000" stroke="#000000" stroke-width="2.0" stroke-linecap="butt" d="m356.96515 261.36304l7.6002502 5.960388l-1.9908752 -9.451294z" fill-rule="evenodd"></path><path fill="#000000" fill-opacity="0.0" d="m300.97638 229.40683l65.13385 40.37796" fill-rule="nonzero"></path><path stroke="#000000" stroke-width="2.0" stroke-linejoin="round" stroke-linecap="butt" d="m300.97638 229.40683l54.93466 34.055237" fill-rule="evenodd"></path><path fill="#000000" stroke="#000000" stroke-width="2.0" stroke-linecap="butt" d="m354.17047 266.2698l9.454742 1.9744263l-5.9736023 -7.5898743z" fill-rule="evenodd"></path><path fill="#000000" fill-opacity="0.0" d="m300.97638 357.93176l65.13385 -88.12598" fill-rule="nonzero"></path><path stroke="#000000" stroke-width="2.0" stroke-linejoin="round" stroke-linecap="butt" d="m300.97638 357.93176l58.001343 -78.47574" fill-rule="evenodd"></path><path fill="#000000" stroke="#000000" stroke-width="2.0" stroke-linecap="butt" d="m361.63434 281.41953l2.7380676 -9.262451l-8.05127 5.335449z" fill-rule="evenodd"></path><path fill="#000000" fill-opacity="0.0" d="m617.0971 100.88189l65.13385 120.18897" fill-rule="nonzero"></path><path stroke="#000000" stroke-width="2.0" stroke-linejoin="round" stroke-linecap="butt" d="m617.0971 100.88189l59.41632 109.63863" fill-rule="evenodd"></path><path fill="#000000" stroke="#000000" stroke-width="2.0" stroke-linecap="butt" d="m673.6091 212.0945l7.228821 6.405777l-1.420044 -9.553726z" fill-rule="evenodd"></path><path fill="#000000" fill-opacity="0.0" d="m617.0971 165.14436l65.13385 55.936996" fill-rule="nonzero"></path><path stroke="#000000" stroke-width="2.0" stroke-linejoin="round" stroke-linecap="butt" d="m617.0971 165.14436l56.030212 48.118805" fill-rule="evenodd"></path><path fill="#000000" stroke="#000000" stroke-width="2.0" stroke-linecap="butt" d="m670.9751 215.7693l9.037781 3.4071503l-4.7332764 -8.419403z" fill-rule="evenodd"></path><path fill="#000000" fill-opacity="0.0" d="m617.0971 229.40683l65.13385 -8.346466" fill-rule="nonzero"></path><path stroke="#000000" stroke-width="2.0" stroke-linejoin="round" stroke-linecap="butt" d="m617.0971 229.40683l53.2312 -6.821228" fill-rule="evenodd"></path><path fill="#000000" stroke="#000000" stroke-width="2.0" stroke-linecap="butt" d="m670.74817 225.86229l8.582703 -4.430298l-9.422485 -2.1230469z" fill-rule="evenodd"></path><path fill="#000000" fill-opacity="0.0" d="m617.0971 357.93176l65.13385 -136.8504" fill-rule="nonzero"></path><path stroke="#000000" stroke-width="2.0" stroke-linejoin="round" stroke-linecap="butt" d="m617.0971 357.93176l59.976807 -126.01506" fill-rule="evenodd"></path><path fill="#000000" stroke="#000000" stroke-width="2.0" stroke-linecap="butt" d="m680.05676 233.3364l0.9176636 -9.61499l-6.883362 6.7756195z" fill-rule="evenodd"></path><path fill="#000000" fill-opacity="0.0" d="m933.21655 100.88058l91.968506 1.0708694" fill-rule="nonzero"></path><path stroke="#000000" stroke-width="2.0" stroke-linejoin="round" stroke-linecap="butt" d="m933.21655 100.88058l79.9693 0.93115234" fill-rule="evenodd"></path><path fill="#000000" stroke="#000000" stroke-width="2.0" stroke-linecap="butt" d="m1013.1474 105.11497l9.114014 -3.1975632l-9.037109 -3.4089203z" fill-rule="evenodd"></path><path fill="#000000" fill-opacity="0.0" d="m933.21655 165.14305l91.968506 -63.181107" fill-rule="nonzero"></path><path stroke="#000000" stroke-width="2.0" stroke-linejoin="round" stroke-linecap="butt" d="m933.21655 165.14305l82.077576 -56.386215" fill-rule="evenodd"></path><path fill="#000000" stroke="#000000" stroke-width="2.0" stroke-linecap="butt" d="m1017.16473 111.47968l5.6104126 -7.8621597l-9.3515625 2.4164658z" fill-rule="evenodd"></path><path fill="#000000" fill-opacity="0.0" d="m933.21655 229.40552l91.968506 -127.46457" fill-rule="nonzero"></path><path stroke="#000000" stroke-width="2.0" stroke-linejoin="round" stroke-linecap="butt" d="m933.21655 229.40552l84.94708 -117.73319" fill-rule="evenodd"></path><path fill="#000000" stroke="#000000" stroke-width="2.0" stroke-linecap="butt" d="m1020.8426 113.60524l2.6316528 -9.293243l-7.989563 5.427414z" fill-rule="evenodd"></path><path fill="#000000" fill-opacity="0.0" d="m933.21655 357.93045l91.968506 -255.9685" fill-rule="nonzero"></path><path stroke="#000000" stroke-width="2.0" stroke-linejoin="round" stroke-linecap="butt" d="m933.21655 357.93045l87.91089 -244.67532" fill-rule="evenodd"></path><path fill="#000000" stroke="#000000" stroke-width="2.0" stroke-linecap="butt" d="m1024.2363 114.37213l-0.039916992 -9.6586l-6.1778564 7.4245834z" fill-rule="evenodd"></path><path fill="#fce5cd" d="m194.68504 490.83203l139.43306 0l0 27.496033l-139.43306 0z" fill-rule="nonzero"></path><path stroke="#000000" stroke-width="2.0" stroke-linejoin="round" stroke-linecap="butt" d="m194.68504 490.83203l139.43306 0l0 27.496033l-139.43306 0z" fill-rule="nonzero"></path><path fill="#000000" d="m203.66942 509.38007l3.578125 -9.3125l1.3125 0l3.8125 9.3125l-1.40625 0l-1.078125 -2.8125l-3.890625 0l-1.03125 2.8125l-1.296875 0zm2.6875 -3.828125l3.15625 0l-0.984375 -2.578125q-0.4375 -1.171875 -0.65625 -1.921875q-0.171875 0.890625 -0.5 1.78125l-1.015625 2.71875zm11.49913 3.828125l0 -0.984375q-0.796875 1.140625 -2.140625 1.140625q-0.59375 0 -1.125 -0.234375q-0.515625 -0.234375 -0.765625 -0.578125q-0.25 -0.34375 -0.34375 -0.84375q-0.078125 -0.328125 -0.078125 -1.0625l0 -4.171875l1.140625 0l0 3.734375q0 0.890625 0.078125 1.203125q0.109375 0.453125 0.453125 0.71875q0.34375 0.25 0.859375 0.25q0.515625 0 0.96875 -0.265625q0.453125 -0.265625 0.640625 -0.71875q0.1875 -0.453125 0.1875 -1.3125l0 -3.609375l1.140625 0l0 6.734375l-1.015625 0zm5.4906006 -1.015625l0.15625 1.0q-0.484375 0.109375 -0.859375 0.109375q-0.625 0 -0.96875 -0.203125q-0.34375 -0.203125 -0.484375 -0.515625q-0.140625 -0.328125 -0.140625 -1.34375l0 -3.890625l-0.828125 0l0 -0.875l0.828125 0l0 -1.671875l1.140625 -0.6875l0 2.359375l1.15625 0l0 0.875l-1.15625 0l0 3.953125q0 0.484375 0.0625 0.625q0.0625 0.140625 0.1875 0.21875q0.140625 0.078125 0.390625 0.078125q0.203125 0 0.515625 -0.03125zm0.7811127 -2.359375q0 -1.875 1.03125 -2.765625q0.875 -0.75 2.125 -0.75q1.390625 0 2.265625 0.90625q0.890625 0.90625 0.890625 2.515625q0 1.296875 -0.390625 2.046875q-0.390625 0.75 -1.140625 1.171875q-0.75 0.40625 -1.625 0.40625q-1.421875 0 -2.296875 -0.90625q-0.859375 -0.90625 -0.859375 -2.625zm1.171875 0q0 1.296875 0.5625 1.953125q0.5625 0.640625 1.421875 0.640625q0.84375 0 1.40625 -0.640625q0.578125 -0.65625 0.578125 -1.984375q0 -1.25 -0.578125 -1.890625q-0.5625 -0.65625 -1.40625 -0.65625q-0.859375 0 -1.421875 0.640625q-0.5625 0.640625 -0.5625 1.9375zm6.2093506 0.578125l0 -1.140625l3.515625 0l0 1.140625l-3.515625 0zm4.6102448 -0.1875l1.171875 -0.109375q0.078125 0.703125 0.375 1.15625q0.3125 0.4375 0.9375 0.71875q0.640625 0.265625 1.4375 0.265625q0.703125 0 1.234375 -0.203125q0.546875 -0.203125 0.8125 -0.5625q0.265625 -0.375 0.265625 -0.8125q0 -0.4375 -0.265625 -0.765625q-0.25 -0.328125 -0.828125 -0.546875q-0.375 -0.140625 -1.65625 -0.453125q-1.28125 -0.3125 -1.796875 -0.578125q-0.671875 -0.34375 -1.0 -0.859375q-0.328125 -0.53125 -0.328125 -1.171875q0 -0.703125 0.390625 -1.3125q0.40625 -0.609375 1.171875 -0.921875q0.78125 -0.328125 1.71875 -0.328125q1.03125 0 1.8125 0.34375q0.796875 0.328125 1.21875 0.984375q0.4375 0.640625 0.46875 1.453125l-1.1875 0.09375q-0.09375 -0.890625 -0.640625 -1.328125q-0.546875 -0.453125 -1.625 -0.453125q-1.109375 0 -1.625 0.40625q-0.515625 0.40625 -0.515625 0.984375q0 0.5 0.359375 0.828125q0.359375 0.328125 1.859375 0.671875q1.5 0.328125 2.0625 0.578125q0.8125 0.375 1.1875 0.953125q0.390625 0.578125 0.390625 1.328125q0 0.734375 -0.421875 1.390625q-0.421875 0.65625 -1.21875 1.03125q-0.796875 0.359375 -1.796875 0.359375q-1.265625 0 -2.125 -0.359375q-0.84375 -0.375 -1.328125 -1.109375q-0.484375 -0.75 -0.515625 -1.671875zm13.56163 0.515625l1.125 0.140625q-0.171875 1.171875 -0.9375 1.828125q-0.765625 0.65625 -1.859375 0.65625q-1.390625 0 -2.234375 -0.90625q-0.828125 -0.90625 -0.828125 -2.59375q0 -1.09375 0.359375 -1.90625q0.359375 -0.828125 1.09375 -1.234375q0.734375 -0.40625 1.609375 -0.40625q1.09375 0 1.796875 0.5625q0.703125 0.546875 0.890625 1.5625l-1.109375 0.171875q-0.15625 -0.671875 -0.5625 -1.015625q-0.390625 -0.34375 -0.96875 -0.34375q-0.859375 0 -1.40625 0.625q-0.53125 0.609375 -0.53125 1.953125q0 1.359375 0.515625 1.984375q0.515625 0.609375 1.359375 0.609375q0.671875 0 1.125 -0.40625q0.453125 -0.421875 0.5625 -1.28125zm6.6640472 1.640625q-0.62498474 0.53125 -1.2187347 0.765625q-0.578125 0.21875 -1.25 0.21875q-1.125 0 -1.71875 -0.546875q-0.59375 -0.546875 -0.59375 -1.390625q0 -0.484375 0.21875 -0.890625q0.234375 -0.421875 0.59375 -0.671875q0.375 -0.25 0.828125 -0.375q0.328125 -0.078125 1.015625 -0.171875q1.375 -0.15625 2.0312347 -0.390625q0.015625 -0.234375 0.015625 -0.296875q0 -0.703125 -0.32810974 -0.984375q-0.4375 -0.390625 -1.296875 -0.390625q-0.8125 0 -1.203125 0.28125q-0.375 0.28125 -0.5625 1.0l-1.109375 -0.140625q0.140625 -0.71875 0.484375 -1.15625q0.359375 -0.453125 1.015625 -0.6875q0.671875 -0.234375 1.53125 -0.234375q0.875 0 1.4062347 0.203125q0.546875 0.203125 0.796875 0.515625q0.25 0.296875 0.359375 0.765625q0.046875 0.296875 0.046875 1.0625l0 1.515625q0 1.59375 0.078125 2.015625q0.078125 0.421875 0.28125 0.8125l-1.1875 0q-0.171875 -0.359375 -0.234375 -0.828125zm-0.09375 -2.5625q-0.62498474 0.265625 -1.8593597 0.4375q-0.703125 0.109375 -1.0 0.234375q-0.296875 0.125 -0.453125 0.375q-0.15625 0.234375 -0.15625 0.53125q0 0.453125 0.34375 0.765625q0.34375 0.296875 1.015625 0.296875q0.65625 0 1.171875 -0.28125q0.515625 -0.296875 0.76560974 -0.796875q0.171875 -0.375 0.171875 -1.140625l0 -0.421875zm3.0843506 3.390625l0 -9.3125l1.140625 0l0 9.3125l-1.140625 0zm2.99234 -7.984375l0 -1.328125l1.140625 0l0 1.328125l-1.140625 0zm0 7.984375l0 -6.734375l1.140625 0l0 6.734375l-1.140625 0zm2.96109 0l0 -6.734375l1.03125 0l0 0.953125q0.734375 -1.109375 2.140625 -1.109375q0.609375 0 1.109375 0.21875q0.515625 0.21875 0.765625 0.578125q0.265625 0.34375 0.359375 0.84375q0.0625 0.3125 0.0625 1.109375l0 4.140625l-1.140625 0l0 -4.09375q0 -0.703125 -0.140625 -1.046875q-0.125 -0.34375 -0.46875 -0.546875q-0.328125 -0.21875 -0.78125 -0.21875q-0.734375 0 -1.265625 0.46875q-0.53125 0.453125 -0.53125 1.75l0 3.6875l-1.140625 0zm7.1937256 0.5625l1.125 0.15625q0.0625 0.515625 0.375 0.75q0.4375 0.328125 1.171875 0.328125q0.78125 0 1.21875 -0.328125q0.4375 -0.3125 0.578125 -0.890625q0.09375 -0.34375 0.09375 -1.453125q-0.75 0.875 -1.875 0.875q-1.390625 0 -2.15625 -1.0q-0.75 -1.0 -0.75 -2.40625q0 -0.96875 0.34375 -1.78125q0.359375 -0.8125 1.015625 -1.25q0.65625 -0.453125 1.5625 -0.453125q1.1875 0 1.96875 0.96875l0 -0.8125l1.046875 0l0 5.8125q0 1.578125 -0.328125 2.234375q-0.3125 0.65625 -1.015625 1.03125q-0.6875 0.390625 -1.703125 0.390625q-1.203125 0 -1.953125 -0.546875q-0.734375 -0.53125 -0.71875 -1.625zm0.953125 -4.046875q0 1.3125 0.515625 1.921875q0.53125 0.609375 1.328125 0.609375q0.796875 0 1.328125 -0.59375q0.53125 -0.609375 0.53125 -1.90625q0 -1.234375 -0.546875 -1.859375q-0.546875 -0.640625 -1.328125 -0.640625q-0.765625 0 -1.296875 0.625q-0.53125 0.625 -0.53125 1.84375zm14.8811035 -0.171875l0 -1.078125l3.9375 -0.015625l0 3.453125q-0.90625 0.71875 -1.875 1.09375q-0.953125 0.359375 -1.96875 0.359375q-1.375 0 -2.5 -0.578125q-1.125 -0.59375 -1.703125 -1.703125q-0.5625 -1.109375 -0.5625 -2.484375q0 -1.359375 0.5625 -2.53125q0.578125 -1.1875 1.640625 -1.75q1.078125 -0.578125 2.453125 -0.578125q1.015625 0 1.828125 0.328125q0.8125 0.328125 1.28125 0.921875q0.46875 0.578125 0.703125 1.515625l-1.109375 0.296875q-0.203125 -0.703125 -0.515625 -1.109375q-0.3125 -0.40625 -0.890625 -0.640625q-0.578125 -0.25 -1.28125 -0.25q-0.84375 0 -1.46875 0.265625q-0.609375 0.25 -0.984375 0.671875q-0.375 0.40625 -0.59375 0.90625q-0.34375 0.875 -0.34375 1.875q0 1.25 0.421875 2.09375q0.421875 0.828125 1.234375 1.234375q0.828125 0.40625 1.75 0.40625q0.796875 0 1.5625 -0.296875q0.765625 -0.3125 1.15625 -0.671875l0 -1.734375l-2.734375 0zm5.85141 3.65625l0 -6.734375l1.03125 0l0 1.015625q0.390625 -0.71875 0.71875 -0.9375q0.34375 -0.234375 0.734375 -0.234375q0.578125 0 1.171875 0.359375l-0.390625 1.0625q-0.421875 -0.25 -0.828125 -0.25q-0.375 0 -0.6875 0.234375q-0.296875 0.21875 -0.421875 0.625q-0.1875 0.609375 -0.1875 1.328125l0 3.53125l-1.140625 0zm4.032135 -3.375q0 -1.875 1.03125 -2.765625q0.875 -0.75 2.125 -0.75q1.390625 0 2.265625 0.90625q0.890625 0.90625 0.890625 2.515625q0 1.296875 -0.390625 2.046875q-0.390625 0.75 -1.140625 1.171875q-0.75 0.40625 -1.625 0.40625q-1.421875 0 -2.296875 -0.90625q-0.859375 -0.90625 -0.859375 -2.625zm1.171875 0q0 1.296875 0.5625 1.953125q0.5625 0.640625 1.421875 0.640625q0.84375 0 1.40625 -0.640625q0.578125 -0.65625 0.578125 -1.984375q0 -1.25 -0.578125 -1.890625q-0.5625 -0.65625 -1.40625 -0.65625q-0.859375 0 -1.421875 0.640625q-0.5625 0.640625 -0.5625 1.9375zm11.084351 3.375l0 -0.984375q-0.796875 1.140625 -2.140625 1.140625q-0.59375 0 -1.125 -0.234375q-0.515625 -0.234375 -0.765625 -0.578125q-0.25 -0.34375 -0.34375 -0.84375q-0.078125 -0.328125 -0.078125 -1.0625l0 -4.171875l1.140625 0l0 3.734375q0 0.890625 0.078125 1.203125q0.109375 0.453125 0.453125 0.71875q0.34375 0.25 0.859375 0.25q0.515625 0 0.96875 -0.265625q0.453125 -0.265625 0.640625 -0.71875q0.1875 -0.453125 0.1875 -1.3125l0 -3.609375l1.140625 0l0 6.734375l-1.015625 0zm2.9906006 2.578125l0 -9.3125l1.03125 0l0 0.875q0.375 -0.515625 0.828125 -0.765625q0.46875 -0.265625 1.140625 -0.265625q0.859375 0 1.515625 0.453125q0.65625 0.4375 0.984375 1.25q0.34375 0.796875 0.34375 1.765625q0 1.03125 -0.375 1.859375q-0.359375 0.828125 -1.078125 1.28125q-0.703125 0.4375 -1.484375 0.4375q-0.5625 0 -1.015625 -0.234375q-0.453125 -0.25 -0.75 -0.625l0 3.28125l-1.140625 0zm1.03125 -5.90625q0 1.296875 0.53125 1.921875q0.53125 0.625 1.265625 0.625q0.765625 0 1.3125 -0.640625q0.546875 -0.65625 0.546875 -2.0q0 -1.296875 -0.53125 -1.9375q-0.53125 -0.640625 -1.265625 -0.640625q-0.734375 0 -1.296875 0.6875q-0.5625 0.671875 -0.5625 1.984375z" fill-rule="nonzero"></path><path fill="#cfe2f3" d="m366.19946 490.83203l139.43307 0l0 27.496033l-139.43307 0z" fill-rule="nonzero"></path><path stroke="#000000" stroke-width="2.0" stroke-linejoin="round" stroke-linecap="butt" d="m366.19946 490.83203l139.43307 0l0 27.496033l-139.43307 0z" fill-rule="nonzero"></path><path fill="#000000" d="m376.4182 509.38007l0 -9.3125l1.21875 0l0 9.3125l-1.21875 0zm3.343628 0l0 -6.734375l1.03125 0l0 0.953125q0.734375 -1.109375 2.140625 -1.109375q0.609375 0 1.109375 0.21875q0.515625 0.21875 0.765625 0.578125q0.265625 0.34375 0.359375 0.84375q0.0625 0.3125 0.0625 1.109375l0 4.140625l-1.140625 0l0 -4.09375q0 -0.703125 -0.140625 -1.046875q-0.125 -0.34375 -0.46875 -0.546875q-0.328125 -0.21875 -0.78125 -0.21875q-0.734375 0 -1.265625 0.46875q-0.53125 0.453125 -0.53125 1.75l0 3.6875l-1.140625 0zm6.9593506 -2.015625l1.125 -0.171875q0.09375 0.671875 0.53125 1.046875q0.4375 0.359375 1.21875 0.359375q0.78125 0 1.15625 -0.3125q0.390625 -0.328125 0.390625 -0.765625q0 -0.390625 -0.34375 -0.609375q-0.234375 -0.15625 -1.171875 -0.390625q-1.25 -0.3125 -1.734375 -0.546875q-0.484375 -0.234375 -0.734375 -0.640625q-0.25 -0.40625 -0.25 -0.90625q0 -0.453125 0.203125 -0.828125q0.203125 -0.390625 0.5625 -0.640625q0.265625 -0.203125 0.71875 -0.328125q0.46875 -0.140625 1.0 -0.140625q0.78125 0 1.375 0.234375q0.609375 0.21875 0.890625 0.609375q0.296875 0.390625 0.40625 1.046875l-1.125 0.15625q-0.078125 -0.53125 -0.4375 -0.8125q-0.359375 -0.296875 -1.03125 -0.296875q-0.78125 0 -1.125 0.265625q-0.34375 0.25 -0.34375 0.609375q0 0.21875 0.140625 0.390625q0.140625 0.1875 0.4375 0.3125q0.171875 0.0625 1.015625 0.28125q1.21875 0.328125 1.6875 0.53125q0.484375 0.203125 0.75 0.609375q0.28125 0.390625 0.28125 0.96875q0 0.578125 -0.34375 1.078125q-0.328125 0.5 -0.953125 0.78125q-0.625 0.28125 -1.421875 0.28125q-1.3125 0 -2.0 -0.546875q-0.6875 -0.546875 -0.875 -1.625zm9.6171875 1.0l0.15625 1.0q-0.484375 0.109375 -0.859375 0.109375q-0.625 0 -0.96875 -0.203125q-0.34375 -0.203125 -0.484375 -0.515625q-0.140625 -0.328125 -0.140625 -1.34375l0 -3.890625l-0.828125 0l0 -0.875l0.828125 0l0 -1.671875l1.140625 -0.6875l0 2.359375l1.15625 0l0 0.875l-1.15625 0l0 3.953125q0 0.484375 0.0625 0.625q0.0625 0.140625 0.1875 0.21875q0.140625 0.078125 0.390625 0.078125q0.203125 0 0.515625 -0.03125zm5.5935974 0.1875q-0.625 0.53125 -1.21875 0.765625q-0.578125 0.21875 -1.25 0.21875q-1.125 0 -1.71875 -0.546875q-0.59375 -0.546875 -0.59375 -1.390625q0 -0.484375 0.21875 -0.890625q0.234375 -0.421875 0.59375 -0.671875q0.375 -0.25 0.828125 -0.375q0.328125 -0.078125 1.015625 -0.171875q1.375 -0.15625 2.03125 -0.390625q0.015625 -0.234375 0.015625 -0.296875q0 -0.703125 -0.328125 -0.984375q-0.4375 -0.390625 -1.296875 -0.390625q-0.8125 0 -1.203125 0.28125q-0.375 0.28125 -0.5625 1.0l-1.109375 -0.140625q0.140625 -0.71875 0.484375 -1.15625q0.359375 -0.453125 1.015625 -0.6875q0.671875 -0.234375 1.53125 -0.234375q0.875 0 1.40625 0.203125q0.546875 0.203125 0.796875 0.515625q0.25 0.296875 0.359375 0.765625q0.046875 0.296875 0.046875 1.0625l0 1.515625q0 1.59375 0.078125 2.015625q0.078125 0.421875 0.28125 0.8125l-1.1875 0q-0.171875 -0.359375 -0.234375 -0.828125zm-0.09375 -2.5625q-0.625 0.265625 -1.859375 0.4375q-0.703125 0.109375 -1.0 0.234375q-0.296875 0.125 -0.453125 0.375q-0.15625 0.234375 -0.15625 0.53125q0 0.453125 0.34375 0.765625q0.34375 0.296875 1.015625 0.296875q0.65625 0 1.171875 -0.28125q0.515625 -0.296875 0.765625 -0.796875q0.171875 -0.375 0.171875 -1.140625l0 -0.421875zm3.1156006 3.390625l0 -6.734375l1.03125 0l0 0.953125q0.734375 -1.109375 2.140625 -1.109375q0.609375 0 1.109375 0.21875q0.515625 0.21875 0.765625 0.578125q0.265625 0.34375 0.359375 0.84375q0.0625 0.3125 0.0625 1.109375l0 4.140625l-1.140625 0l0 -4.09375q0 -0.703125 -0.140625 -1.046875q-0.125 -0.34375 -0.46875 -0.546875q-0.328125 -0.21875 -0.78125 -0.21875q-0.734375 0 -1.265625 0.46875q-0.53125 0.453125 -0.53125 1.75l0 3.6875l-1.140625 0zm11.803101 -2.46875l1.125 0.140625q-0.171875 1.171875 -0.9375 1.828125q-0.765625 0.65625 -1.859375 0.65625q-1.390625 0 -2.234375 -0.90625q-0.828125 -0.90625 -0.828125 -2.59375q0 -1.09375 0.359375 -1.90625q0.359375 -0.828125 1.09375 -1.234375q0.734375 -0.40625 1.609375 -0.40625q1.09375 0 1.796875 0.5625q0.703125 0.546875 0.890625 1.5625l-1.109375 0.171875q-0.15625 -0.671875 -0.5625 -1.015625q-0.390625 -0.34375 -0.96875 -0.34375q-0.859375 0 -1.40625 0.625q-0.53125 0.609375 -0.53125 1.953125q0 1.359375 0.515625 1.984375q0.515625 0.609375 1.359375 0.609375q0.671875 0 1.125 -0.40625q0.453125 -0.421875 0.5625 -1.28125zm6.8828125 0.296875l1.1875 0.140625q-0.28125 1.046875 -1.046875 1.625q-0.75 0.5625 -1.921875 0.5625q-1.484375 0 -2.359375 -0.90625q-0.859375 -0.921875 -0.859375 -2.5625q0 -1.703125 0.875 -2.640625q0.890625 -0.9375 2.28125 -0.9375q1.359375 0 2.203125 0.921875q0.859375 0.921875 0.859375 2.578125q0 0.109375 0 0.3125l-5.03125 0q0.0625 1.109375 0.625 1.703125q0.5625 0.59375 1.40625 0.59375q0.640625 0 1.078125 -0.328125q0.453125 -0.34375 0.703125 -1.0625zm-3.75 -1.84375l3.765625 0q-0.078125 -0.859375 -0.4375 -1.28125q-0.546875 -0.65625 -1.40625 -0.65625q-0.796875 0 -1.328125 0.53125q-0.53125 0.515625 -0.59375 1.40625z" fill-rule="nonzero"></path><path fill="#d9ead3" d="m537.7139 490.83203l139.43304 0l0 27.496033l-139.43304 0z" fill-rule="nonzero"></path><path stroke="#000000" stroke-width="2.0" stroke-linejoin="round" stroke-linecap="butt" d="m537.7139 490.83203l139.43304 0l0 27.496033l-139.43304 0z" fill-rule="nonzero"></path><path fill="#000000" d="m547.29205 506.3957l1.171875 -0.109375q0.078125 0.703125 0.375 1.15625q0.3125 0.4375 0.9375 0.71875q0.640625 0.265625 1.4375 0.265625q0.703125 0 1.234375 -0.203125q0.546875 -0.203125 0.8125 -0.5625q0.265625 -0.375 0.265625 -0.8125q0 -0.4375 -0.265625 -0.765625q-0.25 -0.328125 -0.828125 -0.546875q-0.375 -0.140625 -1.65625 -0.453125q-1.28125 -0.3125 -1.796875 -0.578125q-0.671875 -0.34375 -1.0 -0.859375q-0.328125 -0.53125 -0.328125 -1.171875q0 -0.703125 0.390625 -1.3125q0.40625 -0.609375 1.171875 -0.921875q0.78125 -0.328125 1.71875 -0.328125q1.03125 0 1.8125 0.34375q0.796875 0.328125 1.21875 0.984375q0.4375 0.640625 0.46875 1.453125l-1.1875 0.09375q-0.09375 -0.890625 -0.640625 -1.328125q-0.546875 -0.453125 -1.625 -0.453125q-1.109375 0 -1.625 0.40625q-0.515625 0.40625 -0.515625 0.984375q0 0.5 0.359375 0.828125q0.359375 0.328125 1.859375 0.671875q1.5 0.328125 2.0625 0.578125q0.8125 0.375 1.1875 0.953125q0.390625 0.578125 0.390625 1.328125q0 0.734375 -0.421875 1.390625q-0.421875 0.65625 -1.21875 1.03125q-0.796875 0.359375 -1.796875 0.359375q-1.265625 0 -2.125 -0.359375q-0.84375 -0.375 -1.328125 -1.109375q-0.484375 -0.75 -0.515625 -1.671875zm16.374084 1.984375q0.84375 0.59375 1.578125 0.859375l-0.359375 0.859375q-1.015625 -0.359375 -2.0 -1.140625q-1.046875 0.578125 -2.296875 0.578125q-1.265625 0 -2.296875 -0.609375q-1.015625 -0.609375 -1.578125 -1.703125q-0.546875 -1.109375 -0.546875 -2.5q0 -1.375 0.546875 -2.5q0.5625 -1.140625 1.59375 -1.71875q1.03125 -0.59375 2.3125 -0.59375q1.28125 0 2.3125 0.609375q1.046875 0.609375 1.578125 1.71875q0.546875 1.09375 0.546875 2.484375q0 1.140625 -0.34375 2.0625q-0.34375 0.921875 -1.046875 1.59375zm-2.71875 -1.578125q1.0625 0.3125 1.765625 0.890625q1.078125 -0.984375 1.078125 -2.96875q0 -1.140625 -0.390625 -1.984375q-0.375 -0.84375 -1.125 -1.296875q-0.734375 -0.46875 -1.65625 -0.46875q-1.375 0 -2.28125 0.9375q-0.90625 0.9375 -0.90625 2.8125q0 1.8125 0.890625 2.796875q0.90625 0.96875 2.296875 0.96875q0.671875 0 1.25 -0.25q-0.578125 -0.375 -1.21875 -0.53125l0.296875 -0.90625zm5.6014404 -0.40625l1.171875 -0.109375q0.078125 0.703125 0.375 1.15625q0.3125 0.4375 0.9375 0.71875q0.640625 0.265625 1.4375 0.265625q0.703125 0 1.234375 -0.203125q0.546875 -0.203125 0.8125 -0.5625q0.265625 -0.375 0.265625 -0.8125q0 -0.4375 -0.265625 -0.765625q-0.25 -0.328125 -0.828125 -0.546875q-0.375 -0.140625 -1.65625 -0.453125q-1.28125 -0.3125 -1.796875 -0.578125q-0.671875 -0.34375 -1.0 -0.859375q-0.328125 -0.53125 -0.328125 -1.171875q0 -0.703125 0.390625 -1.3125q0.40625 -0.609375 1.171875 -0.921875q0.78125 -0.328125 1.71875 -0.328125q1.03125 0 1.8125 0.34375q0.796875 0.328125 1.21875 0.984375q0.4375 0.640625 0.46875 1.453125l-1.1875 0.09375q-0.09375 -0.890625 -0.640625 -1.328125q-0.546875 -0.453125 -1.625 -0.453125q-1.109375 0 -1.625 0.40625q-0.515625 0.40625 -0.515625 0.984375q0 0.5 0.359375 0.828125q0.359375 0.328125 1.859375 0.671875q1.5 0.328125 2.0625 0.578125q0.8125 0.375 1.1875 0.953125q0.390625 0.578125 0.390625 1.328125q0 0.734375 -0.421875 1.390625q-0.421875 0.65625 -1.21875 1.03125q-0.796875 0.359375 -1.796875 0.359375q-1.265625 0 -2.125 -0.359375q-0.84375 -0.375 -1.328125 -1.109375q-0.484375 -0.75 -0.515625 -1.671875zm20.077148 1.984375q0.84375 0.59375 1.578125 0.859375l-0.359375 0.859375q-1.015625 -0.359375 -2.0 -1.140625q-1.046875 0.578125 -2.296875 0.578125q-1.265625 0 -2.296875 -0.609375q-1.015625 -0.609375 -1.578125 -1.703125q-0.546875 -1.109375 -0.546875 -2.5q0 -1.375 0.546875 -2.5q0.5625 -1.140625 1.59375 -1.71875q1.03125 -0.59375 2.3125 -0.59375q1.28125 0 2.3125 0.609375q1.046875 0.609375 1.578125 1.71875q0.546875 1.09375 0.546875 2.484375q0 1.140625 -0.34375 2.0625q-0.34375 0.921875 -1.046875 1.59375zm-2.71875 -1.578125q1.0625 0.3125 1.765625 0.890625q1.078125 -0.984375 1.078125 -2.96875q0 -1.140625 -0.390625 -1.984375q-0.375 -0.84375 -1.125 -1.296875q-0.734375 -0.46875 -1.65625 -0.46875q-1.375 0 -2.28125 0.9375q-0.90625 0.9375 -0.90625 2.8125q0 1.8125 0.890625 2.796875q0.90625 0.96875 2.296875 0.96875q0.671875 0 1.25 -0.25q-0.578125 -0.375 -1.21875 -0.53125l0.296875 -0.90625zm10.304504 2.578125l0 -0.984375q-0.796875 1.140625 -2.140625 1.140625q-0.59375 0 -1.125 -0.234375q-0.515625 -0.234375 -0.765625 -0.578125q-0.25 -0.34375 -0.34375 -0.84375q-0.078125 -0.328125 -0.078125 -1.0625l0 -4.171875l1.140625 0l0 3.734375q0 0.890625 0.078125 1.203125q0.109375 0.453125 0.453125 0.71875q0.34375 0.25 0.859375 0.25q0.515625 0 0.96875 -0.265625q0.453125 -0.265625 0.640625 -0.71875q0.1875 -0.453125 0.1875 -1.3125l0 -3.609375l1.140625 0l0 6.734375l-1.015625 0zm7.5999756 -2.171875l1.1875 0.140625q-0.28125 1.046875 -1.046875 1.625q-0.75 0.5625 -1.921875 0.5625q-1.484375 0 -2.359375 -0.90625q-0.859375 -0.921875 -0.859375 -2.5625q0 -1.703125 0.875 -2.640625q0.890625 -0.9375 2.28125 -0.9375q1.359375 0 2.203125 0.921875q0.859375 0.921875 0.859375 2.578125q0 0.109375 0 0.3125l-5.03125 0q0.0625 1.109375 0.625 1.703125q0.5625 0.59375 1.40625 0.59375q0.640625 0 1.078125 -0.328125q0.453125 -0.34375 0.703125 -1.0625zm-3.75 -1.84375l3.765625 0q-0.078125 -0.859375 -0.4375 -1.28125q-0.546875 -0.65625 -1.40625 -0.65625q-0.796875 0 -1.328125 0.53125q-0.53125 0.515625 -0.59375 1.40625zm10.974976 4.015625l0 -0.984375q-0.796875 1.140625 -2.140625 1.140625q-0.59375 0 -1.125 -0.234375q-0.515625 -0.234375 -0.765625 -0.578125q-0.25 -0.34375 -0.34375 -0.84375q-0.078125 -0.328125 -0.078125 -1.0625l0 -4.171875l1.140625 0l0 3.734375q0 0.890625 0.078125 1.203125q0.109375 0.453125 0.453125 0.71875q0.34375 0.25 0.859375 0.25q0.515625 0 0.96875 -0.265625q0.453125 -0.265625 0.640625 -0.71875q0.1875 -0.453125 0.1875 -1.3125l0 -3.609375l1.140625 0l0 6.734375l-1.015625 0zm7.5999756 -2.171875l1.1875 0.140625q-0.28125 1.046875 -1.046875 1.625q-0.75 0.5625 -1.921875 0.5625q-1.484375 0 -2.359375 -0.90625q-0.859375 -0.921875 -0.859375 -2.5625q0 -1.703125 0.875 -2.640625q0.890625 -0.9375 2.28125 -0.9375q1.359375 0 2.203125 0.921875q0.859375 0.921875 0.859375 2.578125q0 0.109375 0 0.3125l-5.03125 0q0.0625 1.109375 0.625 1.703125q0.5625 0.59375 1.40625 0.59375q0.640625 0 1.078125 -0.328125q0.453125 -0.34375 0.703125 -1.0625zm-3.75 -1.84375l3.765625 0q-0.078125 -0.859375 -0.4375 -1.28125q-0.546875 -0.65625 -1.40625 -0.65625q-0.796875 0 -1.328125 0.53125q-0.53125 0.515625 -0.59375 1.40625z" fill-rule="nonzero"></path><path fill="#d9d2e9" d="m709.22833 490.83203l139.4331 0l0 27.496033l-139.4331 0z" fill-rule="nonzero"></path><path stroke="#000000" stroke-width="2.0" stroke-linejoin="round" stroke-linecap="butt" d="m709.22833 490.83203l139.4331 0l0 27.496033l-139.4331 0z" fill-rule="nonzero"></path><path fill="#000000" d="m719.22833 509.38007l0 -9.3125l3.203125 0q1.09375 0 1.65625 0.140625q0.8125 0.1875 1.375 0.671875q0.734375 0.609375 1.09375 1.578125q0.375 0.96875 0.375 2.21875q0 1.0625 -0.25 1.890625q-0.25 0.8125 -0.640625 1.34375q-0.390625 0.53125 -0.859375 0.84375q-0.453125 0.3125 -1.109375 0.46875q-0.640625 0.15625 -1.484375 0.15625l-3.359375 0zm1.234375 -1.09375l1.984375 0q0.921875 0 1.4375 -0.171875q0.53125 -0.171875 0.84375 -0.484375q0.4375 -0.4375 0.671875 -1.171875q0.25 -0.75 0.25 -1.796875q0 -1.46875 -0.484375 -2.25q-0.46875 -0.78125 -1.15625 -1.046875q-0.5 -0.1875 -1.59375 -0.1875l-1.953125 0l0 7.109375zm12.640808 0.265625q-0.625 0.53125 -1.21875 0.765625q-0.578125 0.21875 -1.25 0.21875q-1.125 0 -1.71875 -0.546875q-0.59375 -0.546875 -0.59375 -1.390625q0 -0.484375 0.21875 -0.890625q0.234375 -0.421875 0.59375 -0.671875q0.375 -0.25 0.828125 -0.375q0.328125 -0.078125 1.015625 -0.171875q1.375 -0.15625 2.03125 -0.390625q0.015625 -0.234375 0.015625 -0.296875q0 -0.703125 -0.328125 -0.984375q-0.4375 -0.390625 -1.296875 -0.390625q-0.8125 0 -1.203125 0.28125q-0.375 0.28125 -0.5625 1.0l-1.109375 -0.140625q0.140625 -0.71875 0.484375 -1.15625q0.359375 -0.453125 1.015625 -0.6875q0.671875 -0.234375 1.53125 -0.234375q0.875 0 1.40625 0.203125q0.546875 0.203125 0.796875 0.515625q0.25 0.296875 0.359375 0.765625q0.046875 0.296875 0.046875 1.0625l0 1.515625q0 1.59375 0.078125 2.015625q0.078125 0.421875 0.28125 0.8125l-1.1875 0q-0.171875 -0.359375 -0.234375 -0.828125zm-0.09375 -2.5625q-0.625 0.265625 -1.859375 0.4375q-0.703125 0.109375 -1.0 0.234375q-0.296875 0.125 -0.453125 0.375q-0.15625 0.234375 -0.15625 0.53125q0 0.453125 0.34375 0.765625q0.34375 0.296875 1.015625 0.296875q0.65625 0 1.171875 -0.28125q0.515625 -0.296875 0.765625 -0.796875q0.171875 -0.375 0.171875 -1.140625l0 -0.421875zm5.6156006 2.375l0.15625 1.0q-0.484375 0.109375 -0.859375 0.109375q-0.625 0 -0.96875 -0.203125q-0.34375 -0.203125 -0.484375 -0.515625q-0.140625 -0.328125 -0.140625 -1.34375l0 -3.890625l-0.828125 0l0 -0.875l0.828125 0l0 -1.671875l1.140625 -0.6875l0 2.359375l1.15625 0l0 0.875l-1.15625 0l0 3.953125q0 0.484375 0.0625 0.625q0.0625 0.140625 0.1875 0.21875q0.140625 0.078125 0.390625 0.078125q0.203125 0 0.515625 -0.03125zm5.593567 0.1875q-0.625 0.53125 -1.21875 0.765625q-0.578125 0.21875 -1.25 0.21875q-1.125 0 -1.71875 -0.546875q-0.59375 -0.546875 -0.59375 -1.390625q0 -0.484375 0.21875 -0.890625q0.234375 -0.421875 0.59375 -0.671875q0.375 -0.25 0.828125 -0.375q0.328125 -0.078125 1.015625 -0.171875q1.375 -0.15625 2.03125 -0.390625q0.015625 -0.234375 0.015625 -0.296875q0 -0.703125 -0.328125 -0.984375q-0.4375 -0.390625 -1.296875 -0.390625q-0.8125 0 -1.203125 0.28125q-0.375 0.28125 -0.5625 1.0l-1.109375 -0.140625q0.140625 -0.71875 0.484375 -1.15625q0.359375 -0.453125 1.015625 -0.6875q0.671875 -0.234375 1.53125 -0.234375q0.875 0 1.40625 0.203125q0.546875 0.203125 0.796875 0.515625q0.25 0.296875 0.359375 0.765625q0.046875 0.296875 0.046875 1.0625l0 1.515625q0 1.59375 0.078125 2.015625q0.078125 0.421875 0.28125 0.8125l-1.1875 0q-0.171875 -0.359375 -0.234375 -0.828125zm-0.09375 -2.5625q-0.625 0.265625 -1.859375 0.4375q-0.703125 0.109375 -1.0 0.234375q-0.296875 0.125 -0.453125 0.375q-0.15625 0.234375 -0.15625 0.53125q0 0.453125 0.34375 0.765625q0.34375 0.296875 1.015625 0.296875q0.65625 0 1.171875 -0.28125q0.515625 -0.296875 0.765625 -0.796875q0.171875 -0.375 0.171875 -1.140625l0 -0.421875zm4.1624756 3.390625l-1.0625 0l0 -9.3125l1.15625 0l0 3.328125q0.71875 -0.90625 1.84375 -0.90625q0.625 0 1.171875 0.25q0.5625 0.25 0.921875 0.703125q0.359375 0.453125 0.5625 1.09375q0.203125 0.640625 0.203125 1.375q0 1.734375 -0.859375 2.6875q-0.859375 0.9375 -2.0625 0.9375q-1.1875 0 -1.875 -1.0l0 0.84375zm-0.015625 -3.421875q0 1.21875 0.34375 1.75q0.53125 0.890625 1.453125 0.890625q0.75 0 1.296875 -0.65625q0.546875 -0.65625 0.546875 -1.9375q0 -1.328125 -0.53125 -1.953125q-0.515625 -0.625 -1.265625 -0.625q-0.75 0 -1.296875 0.65625q-0.546875 0.640625 -0.546875 1.875zm10.771851 2.59375q-0.625 0.53125 -1.21875 0.765625q-0.578125 0.21875 -1.25 0.21875q-1.125 0 -1.71875 -0.546875q-0.59375 -0.546875 -0.59375 -1.390625q0 -0.484375 0.21875 -0.890625q0.234375 -0.421875 0.59375 -0.671875q0.375 -0.25 0.828125 -0.375q0.328125 -0.078125 1.015625 -0.171875q1.375 -0.15625 2.03125 -0.390625q0.015625 -0.234375 0.015625 -0.296875q0 -0.703125 -0.328125 -0.984375q-0.4375 -0.390625 -1.296875 -0.390625q-0.8125 0 -1.203125 0.28125q-0.375 0.28125 -0.5625 1.0l-1.109375 -0.140625q0.140625 -0.71875 0.484375 -1.15625q0.359375 -0.453125 1.015625 -0.6875q0.671875 -0.234375 1.53125 -0.234375q0.875 0 1.40625 0.203125q0.546875 0.203125 0.796875 0.515625q0.25 0.296875 0.359375 0.765625q0.046875 0.296875 0.046875 1.0625l0 1.515625q0 1.59375 0.078125 2.015625q0.078125 0.421875 0.28125 0.8125l-1.1875 0q-0.171875 -0.359375 -0.234375 -0.828125zm-0.09375 -2.5625q-0.625 0.265625 -1.859375 0.4375q-0.703125 0.109375 -1.0 0.234375q-0.296875 0.125 -0.453125 0.375q-0.15625 0.234375 -0.15625 0.53125q0 0.453125 0.34375 0.765625q0.34375 0.296875 1.015625 0.296875q0.65625 0 1.171875 -0.28125q0.515625 -0.296875 0.765625 -0.796875q0.171875 -0.375 0.171875 -1.140625l0 -0.421875zm2.6624756 1.375l1.125 -0.171875q0.09375 0.671875 0.53125 1.046875q0.4375 0.359375 1.21875 0.359375q0.78125 0 1.15625 -0.3125q0.390625 -0.328125 0.390625 -0.765625q0 -0.390625 -0.34375 -0.609375q-0.234375 -0.15625 -1.171875 -0.390625q-1.25 -0.3125 -1.734375 -0.546875q-0.484375 -0.234375 -0.734375 -0.640625q-0.25 -0.40625 -0.25 -0.90625q0 -0.453125 0.203125 -0.828125q0.203125 -0.390625 0.5625 -0.640625q0.265625 -0.203125 0.71875 -0.328125q0.46875 -0.140625 1.0 -0.140625q0.78125 0 1.375 0.234375q0.609375 0.21875 0.890625 0.609375q0.296875 0.390625 0.40625 1.046875l-1.125 0.15625q-0.078125 -0.53125 -0.4375 -0.8125q-0.359375 -0.296875 -1.03125 -0.296875q-0.78125 0 -1.125 0.265625q-0.34375 0.25 -0.34375 0.609375q0 0.21875 0.140625 0.390625q0.140625 0.1875 0.4375 0.3125q0.171875 0.0625 1.015625 0.28125q1.21875 0.328125 1.6875 0.53125q0.484375 0.203125 0.75 0.609375q0.28125 0.390625 0.28125 0.96875q0 0.578125 -0.34375 1.078125q-0.328125 0.5 -0.953125 0.78125q-0.625 0.28125 -1.421875 0.28125q-1.3125 0 -2.0 -0.546875q-0.6875 -0.546875 -0.875 -1.625zm11.7265625 -0.15625l1.1875 0.140625q-0.28125 1.046875 -1.046875 1.625q-0.75 0.5625 -1.921875 0.5625q-1.484375 0 -2.359375 -0.90625q-0.859375 -0.921875 -0.859375 -2.5625q0 -1.703125 0.875 -2.640625q0.890625 -0.9375 2.28125 -0.9375q1.359375 0 2.203125 0.921875q0.859375 0.921875 0.859375 2.578125q0 0.109375 0 0.3125l-5.03125 0q0.0625 1.109375 0.625 1.703125q0.5625 0.59375 1.40625 0.59375q0.640625 0 1.078125 -0.328125q0.453125 -0.34375 0.703125 -1.0625zm-3.75 -1.84375l3.765625 0q-0.078125 -0.859375 -0.4375 -1.28125q-0.546875 -0.65625 -1.40625 -0.65625q-0.796875 0 -1.328125 0.53125q-0.53125 0.515625 -0.59375 1.40625z" fill-rule="nonzero"></path><path fill="#e6b8af" d="m10.052493 105.45145l0 0c0 -18.934235 15.349231 -34.28347 34.283466 -34.28347c18.934235 0 34.283463 15.349236 34.283463 34.28347c0 18.934235 -15.349228 34.283463 -34.283463 34.283463c-18.934237 0 -34.283466 -15.349228 -34.283466 -34.283463z" fill-rule="nonzero"></path><path fill="#b7938b" d="m29.781359 95.19815c0 -1.9723206 1.598877 -3.5711975 3.5711918 -3.5711975c1.9723167 0 3.5711975 1.598877 3.5711975 3.5711975c0 1.9723129 -1.5988808 3.5711899 -3.5711975 3.5711899c-1.9723148 0 -3.5711918 -1.598877 -3.5711918 -3.5711899m21.966814 0c0 -1.9723206 1.598877 -3.5711975 3.5711937 -3.5711975c1.9723167 0 3.5711937 1.598877 3.5711937 3.5711975c0 1.9723129 -1.598877 3.5711899 -3.5711937 3.5711899c-1.9723167 0 -3.5711937 -1.598877 -3.5711937 -3.5711899" fill-rule="nonzero"></path><path fill="#000000" fill-opacity="0.0" d="m25.754097 120.402695q18.581863 12.761673 37.120327 0" fill-rule="nonzero"></path><path fill="#000000" fill-opacity="0.0" d="m10.052493 105.45145l0 0c0 -18.934235 15.349231 -34.28347 34.283466 -34.28347c18.934235 0 34.283463 15.349236 34.283463 34.28347c0 18.934235 -15.349228 34.283463 -34.283463 34.283463c-18.934237 0 -34.283466 -15.349228 -34.283466 -34.283463z" fill-rule="nonzero"></path><path stroke="#000000" stroke-width="2.0" stroke-linejoin="round" stroke-linecap="butt" d="m29.781359 95.19815c0 -1.9723206 1.598877 -3.5711975 3.5711918 -3.5711975c1.9723167 0 3.5711975 1.598877 3.5711975 3.5711975c0 1.9723129 -1.5988808 3.5711899 -3.5711975 3.5711899c-1.9723148 0 -3.5711918 -1.598877 -3.5711918 -3.5711899m21.966814 0c0 -1.9723206 1.598877 -3.5711975 3.5711937 -3.5711975c1.9723167 0 3.5711937 1.598877 3.5711937 3.5711975c0 1.9723129 -1.598877 3.5711899 -3.5711937 3.5711899c-1.9723167 0 -3.5711937 -1.598877 -3.5711937 -3.5711899" fill-rule="nonzero"></path><path stroke="#000000" stroke-width="2.0" stroke-linejoin="round" stroke-linecap="butt" d="m25.754097 120.402695q18.581863 12.761673 37.120327 0" fill-rule="nonzero"></path><path stroke="#000000" stroke-width="2.0" stroke-linejoin="round" stroke-linecap="butt" d="m10.052493 105.45145l0 0c0 -18.934235 15.349231 -34.28347 34.283466 -34.28347c18.934235 0 34.283463 15.349236 34.283463 34.28347c0 18.934235 -15.349228 34.283463 -34.283463 34.283463c-18.934237 0 -34.283466 -15.349228 -34.283466 -34.283463z" fill-rule="nonzero"></path><path fill="#e6b8af" d="m1040.3976 395.3517l0 0c0 -18.934235 15.349243 -34.283478 34.28357 -34.283478c18.934204 0 34.283447 15.349243 34.283447 34.283478c0 18.934235 -15.349243 34.283447 -34.283447 34.283447c-18.934326 0 -34.28357 -15.349213 -34.28357 -34.283447z" fill-rule="nonzero"></path><path fill="#b7938b" d="m1060.1265 385.09842c0 -1.9723206 1.598877 -3.5711975 3.571289 -3.5711975c1.97229 0 3.571167 1.598877 3.571167 3.5711975c0 1.9723206 -1.598877 3.5711975 -3.571167 3.5711975c-1.9724121 0 -3.571289 -1.598877 -3.571289 -3.5711975m21.966797 0c0 -1.9723206 1.598877 -3.5711975 3.571289 -3.5711975c1.97229 0 3.571167 1.598877 3.571167 3.5711975c0 1.9723206 -1.598877 3.5711975 -3.571167 3.5711975c-1.9724121 0 -3.571289 -1.598877 -3.571289 -3.5711975" fill-rule="nonzero"></path><path fill="#000000" fill-opacity="0.0" d="m1056.0992 410.30295q18.58191 12.761688 37.12036 0" fill-rule="nonzero"></path><path fill="#000000" fill-opacity="0.0" d="m1040.3976 395.3517l0 0c0 -18.934235 15.349243 -34.283478 34.28357 -34.283478c18.934204 0 34.283447 15.349243 34.283447 34.283478c0 18.934235 -15.349243 34.283447 -34.283447 34.283447c-18.934326 0 -34.28357 -15.349213 -34.28357 -34.283447z" fill-rule="nonzero"></path><path stroke="#000000" stroke-width="2.0" stroke-linejoin="round" stroke-linecap="butt" d="m1060.1265 385.09842c0 -1.9723206 1.598877 -3.5711975 3.571289 -3.5711975c1.97229 0 3.571167 1.598877 3.571167 3.5711975c0 1.9723206 -1.598877 3.5711975 -3.571167 3.5711975c-1.9724121 0 -3.571289 -1.598877 -3.571289 -3.5711975m21.966797 0c0 -1.9723206 1.598877 -3.5711975 3.571289 -3.5711975c1.97229 0 3.571167 1.598877 3.571167 3.5711975c0 1.9723206 -1.598877 3.5711975 -3.571167 3.5711975c-1.9724121 0 -3.571289 -1.598877 -3.571289 -3.5711975" fill-rule="nonzero"></path><path stroke="#000000" stroke-width="2.0" stroke-linejoin="round" stroke-linecap="butt" d="m1056.0992 410.30295q18.58191 12.761688 37.12036 0" fill-rule="nonzero"></path><path stroke="#000000" stroke-width="2.0" stroke-linejoin="round" stroke-linecap="butt" d="m1040.3976 395.3517l0 0c0 -18.934235 15.349243 -34.283478 34.28357 -34.283478c18.934204 0 34.283447 15.349243 34.283447 34.283478c0 18.934235 -15.349243 34.283447 -34.283447 34.283447c-18.934326 0 -34.28357 -15.349213 -34.28357 -34.283447z" fill-rule="nonzero"></path><path fill="#e6b8af" d="m23.170603 490.83203l139.43306 0l0 27.496033l-139.43306 0z" fill-rule="nonzero"></path><path stroke="#000000" stroke-width="2.0" stroke-linejoin="round" stroke-linecap="butt" d="m23.170603 490.83203l139.43306 0l0 27.496033l-139.43306 0z" fill-rule="nonzero"></path><path fill="#000000" d="m39.27998 500.06757l1.234375 0l0 5.390625q0 1.390625 -0.328125 2.21875q-0.3125 0.828125 -1.140625 1.34375q-0.828125 0.515625 -2.171875 0.515625q-1.3125 0 -2.140625 -0.453125q-0.828125 -0.453125 -1.1875 -1.296875q-0.359375 -0.859375 -0.359375 -2.328125l0 -5.390625l1.234375 0l0 5.375q0 1.21875 0.21875 1.796875q0.234375 0.5625 0.78125 0.875q0.546875 0.3125 1.34375 0.3125q1.359375 0 1.9375 -0.609375q0.578125 -0.625 0.578125 -2.375l0 -5.375zm2.9220276 7.296875l1.125 -0.171875q0.09375 0.671875 0.53125 1.046875q0.4375 0.359375 1.21875 0.359375q0.78125 0 1.15625 -0.3125q0.390625 -0.328125 0.390625 -0.765625q0 -0.390625 -0.34375 -0.609375q-0.234375 -0.15625 -1.171875 -0.390625q-1.25 -0.3125 -1.734375 -0.546875q-0.484375 -0.234375 -0.734375 -0.640625q-0.25 -0.40625 -0.25 -0.90625q0 -0.453125 0.203125 -0.828125q0.203125 -0.390625 0.5625 -0.640625q0.265625 -0.203125 0.71875 -0.328125q0.46875 -0.140625 1.0 -0.140625q0.78125 0 1.375 0.234375q0.609375 0.21875 0.890625 0.609375q0.296875 0.390625 0.40625 1.046875l-1.125 0.15625q-0.078125 -0.53125 -0.4375 -0.8125q-0.359375 -0.296875 -1.03125 -0.296875q-0.78125 0 -1.125 0.265625q-0.34375 0.25 -0.34375 0.609375q0 0.21875 0.140625 0.390625q0.140625 0.1875 0.4375 0.3125q0.171875 0.0625 1.015625 0.28125q1.21875 0.328125 1.6875 0.53125q0.484375 0.203125 0.75 0.609375q0.28125 0.390625 0.28125 0.96875q0 0.578125 -0.34375 1.078125q-0.328125 0.5 -0.953125 0.78125q-0.625 0.28125 -1.421875 0.28125q-1.3125 0 -2.0 -0.546875q-0.6875 -0.546875 -0.875 -1.625zm11.7265625 -0.15625l1.1875 0.140625q-0.28125 1.046875 -1.046875 1.625q-0.75 0.5625 -1.921875 0.5625q-1.484375 0 -2.359375 -0.90625q-0.859375 -0.921875 -0.859375 -2.5625q0 -1.703125 0.875 -2.640625q0.890625 -0.9375 2.28125 -0.9375q1.359375 0 2.203125 0.921875q0.859375 0.921875 0.859375 2.578125q0 0.109375 0 0.3125l-5.03125 0q0.0625 1.109375 0.625 1.703125q0.5625 0.59375 1.40625 0.59375q0.640625 0 1.078125 -0.328125q0.453125 -0.34375 0.703125 -1.0625zm-3.75 -1.84375l3.765625 0q-0.078125 -0.859375 -0.4375 -1.28125q-0.546875 -0.65625 -1.40625 -0.65625q-0.796875 0 -1.328125 0.53125q-0.53125 0.515625 -0.59375 1.40625zm6.5374756 4.015625l0 -6.734375l1.03125 0l0 1.015625q0.390625 -0.71875 0.71875 -0.9375q0.34375 -0.234375 0.734375 -0.234375q0.578125 0 1.171875 0.359375l-0.390625 1.0625q-0.421875 -0.25 -0.828125 -0.25q-0.375 0 -0.6875 0.234375q-0.296875 0.21875 -0.421875 0.625q-0.1875 0.609375 -0.1875 1.328125l0 3.53125l-1.140625 0z" fill-rule="nonzero"></path><path fill="#ead1dc" d="m1022.6457 279.3152l0 0c0 -6.3115234 5.116516 -11.42804 11.42804 -11.42804l80.10449 0c3.0308838 0 5.937744 1.20401 8.080933 3.3471985c2.1430664 2.143158 3.347168 5.0499268 3.347168 8.080841l0 45.710846c0 6.3115234 -5.116577 11.42804 -11.428101 11.42804l-80.10449 0c-6.3115234 0 -11.42804 -5.116516 -11.42804 -11.42804z" fill-rule="nonzero"></path><path stroke="#000000" stroke-width="2.0" stroke-linejoin="round" stroke-linecap="butt" d="m1022.6457 279.3152l0 0c0 -6.3115234 5.116516 -11.42804 11.42804 -11.42804l80.10449 0c3.0308838 0 5.937744 1.20401 8.080933 3.3471985c2.1430664 2.143158 3.347168 5.0499268 3.347168 8.080841l0 45.710846c0 6.3115234 -5.116577 11.42804 -11.428101 11.42804l-80.10449 0c-6.3115234 0 -11.42804 -5.116516 -11.42804 -11.42804z" fill-rule="nonzero"></path><path fill="#000000" d="m1046.7057 306.9706l3.578125 -9.3125l1.3125 0l3.8125 9.3125l-1.40625 0l-1.078125 -2.8125l-3.890625 0l-1.03125 2.8125l-1.296875 0zm2.6875 -3.828125l3.15625 0l-0.984375 -2.578125q-0.4375 -1.171875 -0.65625 -1.921875q-0.171875 0.890625 -0.5 1.78125l-1.015625 2.71875zm11.4522705 3.828125l0 -0.84375q-0.640625 1.0 -1.890625 1.0q-0.796875 0 -1.484375 -0.4375q-0.671875 -0.453125 -1.046875 -1.25q-0.375 -0.796875 -0.375 -1.828125q0 -1.015625 0.34375 -1.828125q0.34375 -0.828125 1.015625 -1.265625q0.671875 -0.4375 1.5 -0.4375q0.609375 0 1.078125 0.265625q0.484375 0.25 0.78125 0.65625l0 -3.34375l1.140625 0l0 9.3125l-1.0625 0zm-3.609375 -3.359375q0 1.296875 0.53125 1.9375q0.546875 0.640625 1.296875 0.640625q0.75 0 1.265625 -0.609375q0.53125 -0.625 0.53125 -1.875q0 -1.390625 -0.53125 -2.03125q-0.53125 -0.65625 -1.3125 -0.65625q-0.765625 0 -1.28125 0.625q-0.5 0.625 -0.5 1.96875zm6.6468506 3.359375l0 -6.734375l1.015625 0l0 0.9375q0.328125 -0.5 0.84375 -0.796875q0.53125 -0.296875 1.203125 -0.296875q0.75 0 1.21875 0.3125q0.484375 0.3125 0.6875 0.859375q0.796875 -1.171875 2.078125 -1.171875q1.0 0 1.53125 0.5625q0.546875 0.546875 0.546875 1.703125l0 4.625l-1.125 0l0 -4.25q0 -0.6875 -0.109375 -0.984375q-0.109375 -0.296875 -0.40625 -0.484375q-0.296875 -0.1875 -0.6875 -0.1875q-0.71875 0 -1.1875 0.484375q-0.46875 0.46875 -0.46875 1.5l0 3.921875l-1.140625 0l0 -4.375q0 -0.765625 -0.28125 -1.140625q-0.28125 -0.390625 -0.90625 -0.390625q-0.484375 0 -0.890625 0.265625q-0.40625 0.25 -0.59375 0.734375q-0.1875 0.484375 -0.1875 1.40625l0 3.5l-1.140625 0zm11.102417 -7.984375l0 -1.328125l1.140625 0l0 1.328125l-1.140625 0zm0 7.984375l0 -6.734375l1.140625 0l0 6.734375l-1.140625 0zm2.9610596 0l0 -6.734375l1.03125 0l0 0.953125q0.734375 -1.109375 2.140625 -1.109375q0.609375 0 1.109375 0.21875q0.515625 0.21875 0.765625 0.578125q0.265625 0.34375 0.359375 0.84375q0.0625 0.3125 0.0625 1.109375l0 4.140625l-1.140625 0l0 -4.09375q0 -0.703125 -0.140625 -1.046875q-0.125 -0.34375 -0.46875 -0.546875q-0.328125 -0.21875 -0.78125 -0.21875q-0.734375 0 -1.265625 0.46875q-0.53125 0.453125 -0.53125 1.75l0 3.6875l-1.140625 0zm17.365479 -9.3125l1.234375 0l0 5.390625q0 1.390625 -0.328125 2.21875q-0.3125 0.828125 -1.140625 1.34375q-0.828125 0.515625 -2.171875 0.515625q-1.3125 0 -2.140625 -0.453125q-0.828125 -0.453125 -1.1875 -1.296875q-0.359375 -0.859375 -0.359375 -2.328125l0 -5.390625l1.234375 0l0 5.375q0 1.21875 0.21875 1.796875q0.234375 0.5625 0.78125 0.875q0.546875 0.3125 1.34375 0.3125q1.359375 0 1.9375 -0.609375q0.578125 -0.625 0.578125 -2.375l0 -5.375zm3.734497 9.3125l0 -9.3125l1.21875 0l0 9.3125l-1.21875 0z" fill-rule="nonzero"></path><path fill="#cfe2f3" d="m1021.84753 191.65092l102.96057 0l0 51.62204l-102.96057 0z" fill-rule="nonzero"></path><path stroke="#000000" stroke-width="2.0" stroke-linejoin="round" stroke-linecap="butt" d="m1021.84753 191.65092l102.96057 0l0 51.62204l-102.96057 0z" fill-rule="nonzero"></path><path fill="#000000" d="m1042.9432 222.26195l3.578125 -9.3125l1.3125 0l3.8125 9.3125l-1.40625 0l-1.078125 -2.8125l-3.890625 0l-1.03125 2.8125l-1.296875 0zm2.6875 -3.828125l3.15625 0l-0.984375 -2.578125q-0.4375 -1.171875 -0.65625 -1.921875q-0.171875 0.890625 -0.5 1.78125l-1.015625 2.71875zm7.2022705 3.828125l0 -9.3125l1.265625 0l4.890625 7.3125l0 -7.3125l1.1875 0l0 9.3125l-1.265625 0l-4.890625 -7.3125l0 7.3125l-1.1875 0zm8.625122 0l3.578125 -9.3125l1.3125 0l3.8125 9.3125l-1.40625 0l-1.078125 -2.8125l-3.890625 0l-1.03125 2.8125l-1.296875 0zm2.6875 -3.828125l3.15625 0l-0.984375 -2.578125q-0.4375 -1.171875 -0.65625 -1.921875q-0.171875 0.890625 -0.5 1.78125l-1.015625 2.71875zm7.1710205 3.828125l0 -9.3125l1.234375 0l0 8.21875l4.578125 0l0 1.09375l-5.8125 0zm10.084351 0l0 -3.9375l-3.59375 -5.375l1.5 0l1.84375 2.8125q0.5 0.78125 0.9375 1.578125q0.421875 -0.734375 1.015625 -1.640625l1.8125 -2.75l1.421875 0l-3.703125 5.375l0 3.9375l-1.234375 0zm5.5303955 0l0 -1.140625l4.765625 -5.96875q0.5 -0.625 0.96875 -1.09375l-5.203125 0l0 -1.109375l6.671875 0l0 1.109375l-5.234375 6.453125l-0.5625 0.65625l5.953125 0l0 1.09375l-7.359375 0zm8.906982 0l0 -9.3125l6.71875 0l0 1.109375l-5.484375 0l0 2.84375l5.140625 0l0 1.09375l-5.140625 0l0 3.171875l5.703125 0l0 1.09375l-6.9375 0z" fill-rule="nonzero"></path><path fill="#000000" fill-opacity="0.0" d="m1074.6812 361.06824l-0.5670166 -24.59842" fill-rule="nonzero"></path><path stroke="#000000" stroke-width="2.0" stroke-linejoin="round" stroke-linecap="butt" d="m1074.6812 361.06824l-0.29052734 -12.601624" fill-rule="evenodd"></path><path fill="#000000" stroke="#000000" stroke-width="2.0" stroke-linecap="butt" d="m1077.6932 348.3905l-3.5117188 -8.99765l-3.0933838 9.149902z" fill-rule="evenodd"></path><path fill="#000000" fill-opacity="0.0" d="m1073.3279 191.65092l0.7873535 -24.598434" fill-rule="nonzero"></path><path stroke="#000000" stroke-width="2.0" stroke-linejoin="round" stroke-linecap="butt" d="m1073.3279 191.65092l0.40344238 -12.604584" fill-rule="evenodd"></path><path fill="#000000" stroke="#000000" stroke-width="2.0" stroke-linecap="butt" d="m1077.0331 179.15204l-3.0113525 -9.177231l-3.592163 8.965851z" fill-rule="evenodd"></path><path fill="#000000" fill-opacity="0.0" d="m1074.126 267.88715l-0.7873535 -24.598434" fill-rule="nonzero"></path><path stroke="#000000" stroke-width="2.0" stroke-linejoin="round" stroke-linecap="butt" d="m1074.126 267.88715l-0.40344238 -12.604584" fill-rule="evenodd"></path><path fill="#000000" stroke="#000000" stroke-width="2.0" stroke-linecap="butt" d="m1077.0243 255.17688l-3.592163 -8.965851l-3.0113525 9.177231z" fill-rule="evenodd"></path><path fill="#000000" fill-opacity="0.0" d="m44.33596 139.73491l5.6377945 81.32283" fill-rule="nonzero"></path><path stroke="#000000" stroke-width="2.0" stroke-linejoin="round" stroke-linecap="butt" d="m44.335957 139.73491l4.8078766 69.35156" fill-rule="evenodd"></path><path fill="#000000" stroke="#000000" stroke-width="2.0" stroke-linecap="butt" d="m45.848278 209.31494l3.9232635 8.826004l2.6678467 -9.282944z" fill-rule="evenodd"></path><path fill="#000000" fill-opacity="0.0" d="m190.23885 221.06723l59.118103 -120.18897" fill-rule="nonzero"></path><path stroke="#000000" stroke-width="2.0" stroke-linejoin="round" stroke-linecap="butt" d="m190.23885 221.06723l53.82164 -109.42108" fill-rule="evenodd"></path><path fill="#000000" stroke="#000000" stroke-width="2.0" stroke-linecap="butt" d="m247.02477 113.10421l1.0417023 -9.602348l-6.9702606 6.686226z" fill-rule="evenodd"></path><path fill="#000000" fill-opacity="0.0" d="m190.23885 221.06723l59.118103 -55.936996" fill-rule="nonzero"></path><path stroke="#000000" stroke-width="2.0" stroke-linejoin="round" stroke-linecap="butt" d="m190.23885 221.06723l50.40155 -47.689484" fill-rule="evenodd"></path><path fill="#000000" stroke="#000000" stroke-width="2.0" stroke-linecap="butt" d="m242.91086 175.77733l4.3223114 -8.6375885l-8.86322 3.83844z" fill-rule="evenodd"></path><path fill="#000000" fill-opacity="0.0" d="m190.23885 221.06723l59.118103 8.346466" fill-rule="nonzero"></path><path stroke="#000000" stroke-width="2.0" stroke-linejoin="round" stroke-linecap="butt" d="m190.23885 221.06723l47.235947 6.668915" fill-rule="evenodd"></path><path fill="#000000" stroke="#000000" stroke-width="2.0" stroke-linecap="butt" d="m237.01299 231.00716l9.448883 -2.0021973l-8.525269 -4.5398407z" fill-rule="evenodd"></path><path fill="#000000" fill-opacity="0.0" d="m190.23885 221.06723l59.118103 136.8504" fill-rule="nonzero"></path><path stroke="#000000" stroke-width="2.0" stroke-linejoin="round" stroke-linecap="butt" d="m190.23885 221.06723l54.35927 125.83435" fill-rule="evenodd"></path><path fill="#000000" stroke="#000000" stroke-width="2.0" stroke-linecap="butt" d="m241.56552 348.21164l6.6319427 7.021942l-0.56674194 -9.642029z" fill-rule="evenodd"></path><path fill="#000000" fill-opacity="0.0" d="m506.3609 269.79297l59.118103 -168.91339" fill-rule="nonzero"></path><path stroke="#000000" stroke-width="2.0" stroke-linejoin="round" stroke-linecap="butt" d="m506.3609 269.79297l55.15399 -157.58707" fill-rule="evenodd"></path><path fill="#000000" stroke="#000000" stroke-width="2.0" stroke-linecap="butt" d="m564.6329 113.29718l-0.11975098 -9.657944l-6.116272 7.475395z" fill-rule="evenodd"></path><path fill="#000000" fill-opacity="0.0" d="m506.3609 269.79297l59.118103 -104.66142" fill-rule="nonzero"></path><path stroke="#000000" stroke-width="2.0" stroke-linejoin="round" stroke-linecap="butt" d="m506.3609 269.79297l53.21631 -94.21304" fill-rule="evenodd"></path><path fill="#000000" stroke="#000000" stroke-width="2.0" stroke-linecap="butt" d="m562.45355 177.20464l1.5874634 -9.527344l-7.340149 6.277954z" fill-rule="evenodd"></path><path fill="#000000" fill-opacity="0.0" d="m506.3609 269.79297l59.118103 -40.37796" fill-rule="nonzero"></path><path stroke="#000000" stroke-width="2.0" stroke-linejoin="round" stroke-linecap="butt" d="m506.3609 269.79297l49.208862 -33.609894" fill-rule="evenodd"></path><path fill="#000000" stroke="#000000" stroke-width="2.0" stroke-linecap="butt" d="m557.4329 238.91098l5.631714 -7.846939l-9.358032 2.3911285z" fill-rule="evenodd"></path><path fill="#000000" fill-opacity="0.0" d="m506.3609 269.79297l59.118103 88.12598" fill-rule="nonzero"></path><path stroke="#000000" stroke-width="2.0" stroke-linejoin="round" stroke-linecap="butt" d="m506.3609 269.79297l52.432983 78.160614" fill-rule="evenodd"></path><path fill="#000000" stroke="#000000" stroke-width="2.0" stroke-linecap="butt" d="m556.0505 349.7939l7.7996826 5.696991l-2.3129272 -9.377686z" fill-rule="evenodd"></path><path fill="#000000" fill-opacity="0.0" d="m822.4816 221.06854l59.118103 -120.18897" fill-rule="nonzero"></path><path stroke="#000000" stroke-width="2.0" stroke-linejoin="round" stroke-linecap="butt" d="m822.4816 221.06854l53.821594 -109.42108" fill-rule="evenodd"></path><path fill="#000000" stroke="#000000" stroke-width="2.0" stroke-linecap="butt" d="m879.2675 113.10552l1.041748 -9.602348l-6.970276 6.686226z" fill-rule="evenodd"></path><path fill="#000000" fill-opacity="0.0" d="m822.4816 221.06854l59.118103 -55.936996" fill-rule="nonzero"></path><path stroke="#000000" stroke-width="2.0" stroke-linejoin="round" stroke-linecap="butt" d="m822.4816 221.06854l50.40155 -47.689484" fill-rule="evenodd"></path><path fill="#000000" stroke="#000000" stroke-width="2.0" stroke-linecap="butt" d="m875.1536 175.77864l4.3223267 -8.6375885l-8.86322 3.83844z" fill-rule="evenodd"></path><path fill="#000000" fill-opacity="0.0" d="m822.4816 221.06854l59.118103 8.346466" fill-rule="nonzero"></path><path stroke="#000000" stroke-width="2.0" stroke-linejoin="round" stroke-linecap="butt" d="m822.4816 221.06854l47.235962 6.668915" fill-rule="evenodd"></path><path fill="#000000" stroke="#000000" stroke-width="2.0" stroke-linecap="butt" d="m869.25574 231.00847l9.448914 -2.0021973l-8.525269 -4.5398407z" fill-rule="evenodd"></path><path fill="#000000" fill-opacity="0.0" d="m822.4816 221.06854l59.118103 136.8504" fill-rule="nonzero"></path><path stroke="#000000" stroke-width="2.0" stroke-linejoin="round" stroke-linecap="butt" d="m822.4816 221.06854l54.359253 125.83435" fill-rule="evenodd"></path><path fill="#000000" stroke="#000000" stroke-width="2.0" stroke-linecap="butt" d="m873.8083 348.21295l6.631958 7.021942l-0.56677246 -9.642029z" fill-rule="evenodd"></path><path fill="#000000" fill-opacity="0.0" d="m592.6063 405.27298l0 23.181091l-572.2835 0" fill-rule="nonzero"></path><path stroke="#000000" stroke-width="2.0" stroke-linejoin="round" stroke-linecap="butt" d="m592.6063 405.27298l0 23.181091l-572.2835 0" fill-rule="nonzero"></path><path fill="#000000" fill-opacity="0.0" d="m20.942257 429.3822l0 -208.31497l29.039371 0" fill-rule="nonzero"></path><path stroke="#000000" stroke-width="2.0" stroke-linejoin="round" stroke-linecap="butt" d="m20.942257 429.3822l0 -208.31497l29.039371 0" fill-rule="nonzero"></path><path fill="#e06666" d="m407.4101 136.17192l0 0c0 3.5637512 11.556 6.452759 25.811035 6.452759c14.255035 0 25.811035 -2.8890076 25.811035 -6.452759l0 55.755905c0 3.5637512 -11.556 6.4527435 -25.811035 6.4527435c-14.255035 0 -25.811035 -2.8889923 -25.811035 -6.4527435z" fill-rule="nonzero"></path><path fill="#eca3a3" d="m407.4101 136.17192l0 0c0 -3.5637665 11.556 -6.452759 25.811035 -6.452759c14.255035 0 25.811035 2.8889923 25.811035 6.452759l0 0c0 3.5637512 -11.556 6.452759 -25.811035 6.452759c-14.255035 0 -25.811035 -2.8890076 -25.811035 -6.452759z" fill-rule="nonzero"></path><path fill="#000000" fill-opacity="0.0" d="m459.03217 136.17192l0 0c0 3.5637512 -11.556 6.452759 -25.811035 6.452759c-14.255035 0 -25.811035 -2.8890076 -25.811035 -6.452759l0 0c0 -3.5637665 11.556 -6.452759 25.811035 -6.452759c14.255035 0 25.811035 2.8889923 25.811035 6.452759l0 55.755905c0 3.5637512 -11.556 6.4527435 -25.811035 6.4527435c-14.255035 0 -25.811035 -2.8889923 -25.811035 -6.4527435l0 -55.755905" fill-rule="nonzero"></path><path stroke="#000000" stroke-width="2.0" stroke-linejoin="round" stroke-linecap="butt" d="m459.03217 136.17192l0 0c0 3.5637512 -11.556 6.452759 -25.811035 6.452759c-14.255035 0 -25.811035 -2.8890076 -25.811035 -6.452759l0 0c0 -3.5637665 11.556 -6.452759 25.811035 -6.452759c14.255035 0 25.811035 2.8889923 25.811035 6.452759l0 55.755905c0 3.5637512 -11.556 6.4527435 -25.811035 6.4527435c-14.255035 0 -25.811035 -2.8889923 -25.811035 -6.4527435l0 -55.755905" fill-rule="nonzero"></path><path fill="#000000" d="m425.64813 169.09187l1.171875 -0.109375q0.078125 0.703125 0.375 1.15625q0.3125 0.4375 0.9375 0.71875q0.640625 0.265625 1.4375 0.265625q0.703125 0 1.234375 -0.203125q0.546875 -0.203125 0.8125 -0.5625q0.265625 -0.375 0.265625 -0.8125q0 -0.4375 -0.265625 -0.765625q-0.25 -0.328125 -0.828125 -0.546875q-0.375 -0.140625 -1.65625 -0.453125q-1.28125 -0.3125 -1.796875 -0.578125q-0.671875 -0.34375 -1.0 -0.859375q-0.328125 -0.53125 -0.328125 -1.171875q0 -0.703125 0.390625 -1.3125q0.40625 -0.609375 1.171875 -0.921875q0.78125 -0.328125 1.71875 -0.328125q1.03125 0 1.8125 0.34375q0.796875 0.328125 1.21875 0.984375q0.4375 0.640625 0.46875 1.453125l-1.1875 0.09375q-0.09375 -0.890625 -0.640625 -1.328125q-0.546875 -0.453125 -1.625 -0.453125q-1.109375 0 -1.625 0.40625q-0.515625 0.40625 -0.515625 0.984375q0 0.5 0.359375 0.828125q0.359375 0.328125 1.859375 0.671875q1.5 0.328125 2.0625 0.578125q0.8125 0.375 1.1875 0.953125q0.390625 0.578125 0.390625 1.328125q0 0.734375 -0.421875 1.390625q-0.421875 0.65625 -1.21875 1.03125q-0.796875 0.359375 -1.796875 0.359375q-1.265625 0 -2.125 -0.359375q-0.84375 -0.375 -1.328125 -1.109375q-0.484375 -0.75 -0.515625 -1.671875zm8.8585205 0.53125l1.140625 -0.15625q0.203125 0.96875 0.671875 1.40625q0.46875 0.421875 1.15625 0.421875q0.796875 0 1.34375 -0.546875q0.5625 -0.5625 0.5625 -1.390625q0 -0.796875 -0.515625 -1.296875q-0.5 -0.515625 -1.296875 -0.515625q-0.328125 0 -0.8125 0.125l0.125 -1.0q0.125 0.015625 0.1875 0.015625q0.734375 0 1.3125 -0.375q0.59375 -0.390625 0.59375 -1.1875q0 -0.625 -0.4375 -1.03125q-0.421875 -0.421875 -1.09375 -0.421875q-0.671875 0 -1.109375 0.421875q-0.4375 0.421875 -0.578125 1.25l-1.140625 -0.203125q0.21875 -1.140625 0.953125 -1.765625q0.75 -0.640625 1.84375 -0.640625q0.765625 0 1.40625 0.328125q0.640625 0.328125 0.984375 0.890625q0.34375 0.5625 0.34375 1.203125q0 0.59375 -0.328125 1.09375q-0.328125 0.5 -0.953125 0.78125q0.8125 0.203125 1.265625 0.796875q0.46875 0.59375 0.46875 1.5q0 1.21875 -0.890625 2.078125q-0.890625 0.84375 -2.25 0.84375q-1.21875 0 -2.03125 -0.734375q-0.8125 -0.734375 -0.921875 -1.890625z" fill-rule="nonzero"></path><path fill="#000000" fill-opacity="0.0" d="m300.97638 100.88189l106.4252 63.1811" fill-rule="nonzero"></path><path stroke="#000000" stroke-width="2.0" stroke-linejoin="round" stroke-linecap="butt" stroke-dasharray="8.0,6.0" d="m300.97638 100.88189l96.10654 57.055275" fill-rule="evenodd"></path><path fill="#000000" stroke="#000000" stroke-width="2.0" stroke-linecap="butt" d="m395.39658 160.77777l9.490845 1.7926636l-6.118103 -7.473877z" fill-rule="evenodd"></path><path fill="#000000" fill-opacity="0.0" d="m300.97638 165.14436l106.4252 -1.1023712" fill-rule="nonzero"></path><path stroke="#000000" stroke-width="2.0" stroke-linejoin="round" stroke-linecap="butt" stroke-dasharray="8.0,6.0" d="m300.97638 165.14436l94.42584 -0.9780731" fill-rule="evenodd"></path><path fill="#000000" stroke="#000000" stroke-width="2.0" stroke-linecap="butt" d="m395.43643 167.46957l9.041504 -3.397293l-9.109924 -3.2092896z" fill-rule="evenodd"></path><path fill="#000000" fill-opacity="0.0" d="m300.97638 229.40683l106.4252 -65.35434" fill-rule="nonzero"></path><path stroke="#000000" stroke-width="2.0" stroke-linejoin="round" stroke-linecap="butt" stroke-dasharray="8.0,6.0" d="m300.97638 229.40683l96.1994 -59.0748" fill-rule="evenodd"></path><path fill="#000000" stroke="#000000" stroke-width="2.0" stroke-linecap="butt" d="m398.90445 173.1471l6.005615 -7.5645905l-9.462982 1.9344788z" fill-rule="evenodd"></path><path fill="#000000" fill-opacity="0.0" d="m300.97638 357.93176l106.4252 -193.88977" fill-rule="nonzero"></path><path stroke="#000000" stroke-width="2.0" stroke-linejoin="round" stroke-linecap="butt" stroke-dasharray="8.0,6.0" d="m300.97638 357.93176l100.65109 -183.37027" fill-rule="evenodd"></path><path fill="#000000" stroke="#000000" stroke-width="2.0" stroke-linecap="butt" d="m404.52338 176.15103l1.471344 -9.545959l-7.263153 6.366867z" fill-rule="evenodd"></path><path fill="#000000" fill-opacity="0.0" d="m459.03217 164.04987l106.456665 -63.1811" fill-rule="nonzero"></path><path stroke="#000000" stroke-width="2.0" stroke-linejoin="round" stroke-linecap="butt" stroke-dasharray="8.0,6.0" d="m459.03217 164.04987l96.13727 -57.05661" fill-rule="evenodd"></path><path fill="#000000" stroke="#000000" stroke-width="2.0" stroke-linecap="butt" d="m556.8554 109.834076l6.1190796 -7.473076l-9.491089 1.7914352z" fill-rule="evenodd"></path><path fill="#000000" fill-opacity="0.0" d="m459.03217 164.04987l106.456665 1.1023712" fill-rule="nonzero"></path><path stroke="#000000" stroke-width="2.0" stroke-linejoin="round" stroke-linecap="butt" stroke-dasharray="8.0,6.0" d="m459.03217 164.04987l94.45734 0.9781189" fill-rule="evenodd"></path><path fill="#000000" stroke="#000000" stroke-width="2.0" stroke-linecap="butt" d="m553.45526 168.33127l9.109924 -3.2093048l-9.041504 -3.3972778z" fill-rule="evenodd"></path><path fill="#000000" fill-opacity="0.0" d="m459.03217 164.04987l106.456665 65.35434" fill-rule="nonzero"></path><path stroke="#000000" stroke-width="2.0" stroke-linejoin="round" stroke-linecap="butt" stroke-dasharray="8.0,6.0" d="m459.03217 164.04987l96.23004 59.07614" fill-rule="evenodd"></path><path fill="#000000" stroke="#000000" stroke-width="2.0" stroke-linecap="butt" d="m553.5339 225.94128l9.463257 1.9332275l-6.006592 -7.5637817z" fill-rule="evenodd"></path><path fill="#000000" fill-opacity="0.0" d="m459.03217 164.04987l106.456665 193.88977" fill-rule="nonzero"></path><path stroke="#000000" stroke-width="2.0" stroke-linejoin="round" stroke-linecap="butt" stroke-dasharray="8.0,6.0" d="m459.03217 164.04987l100.681274 183.37097" fill-rule="evenodd"></path><path fill="#000000" stroke="#000000" stroke-width="2.0" stroke-linecap="butt" d="m556.81775 349.01077l7.263916 6.365967l-1.4725342 -9.545776z" fill-rule="evenodd"></path><path fill="#e06666" d="m1138.5964 101.833336l0 0c0 3.5637589 11.55603 6.452751 25.811035 6.452751c14.255005 0 25.811035 -2.8889923 25.811035 -6.452751l0 55.755898c0 3.5637665 -11.55603 6.452759 -25.811035 6.452759c-14.255005 0 -25.811035 -2.8889923 -25.811035 -6.452759z" fill-rule="nonzero"></path><path fill="#eca3a3" d="m1138.5964 101.833336l0 0c0 -3.5637589 11.55603 -6.452759 25.811035 -6.452759c14.255005 0 25.811035 2.889 25.811035 6.452759l0 0c0 3.5637589 -11.55603 6.452751 -25.811035 6.452751c-14.255005 0 -25.811035 -2.8889923 -25.811035 -6.452751z" fill-rule="nonzero"></path><path fill="#000000" fill-opacity="0.0" d="m1190.2185 101.833336l0 0c0 3.5637589 -11.55603 6.452751 -25.811035 6.452751c-14.255005 0 -25.811035 -2.8889923 -25.811035 -6.452751l0 0c0 -3.5637589 11.55603 -6.452759 25.811035 -6.452759c14.255005 0 25.811035 2.889 25.811035 6.452759l0 55.755898c0 3.5637665 -11.55603 6.452759 -25.811035 6.452759c-14.255005 0 -25.811035 -2.8889923 -25.811035 -6.452759l0 -55.755898" fill-rule="nonzero"></path><path stroke="#000000" stroke-width="2.0" stroke-linejoin="round" stroke-linecap="butt" d="m1190.2185 101.833336l0 0c0 3.5637589 -11.55603 6.452751 -25.811035 6.452751c-14.255005 0 -25.811035 -2.8889923 -25.811035 -6.452751l0 0c0 -3.5637589 11.55603 -6.452759 25.811035 -6.452759c14.255005 0 25.811035 2.889 25.811035 6.452759l0 55.755898c0 3.5637665 -11.55603 6.452759 -25.811035 6.452759c-14.255005 0 -25.811035 -2.8889923 -25.811035 -6.452759l0 -55.755898" fill-rule="nonzero"></path><path fill="#000000" d="m1156.8345 134.75328l1.171875 -0.109375q0.078125 0.703125 0.375 1.15625q0.3125 0.4375 0.9375 0.71875q0.640625 0.265625 1.4375 0.265625q0.703125 0 1.234375 -0.203125q0.546875 -0.203125 0.8125 -0.5625q0.265625 -0.375 0.265625 -0.8125q0 -0.4375 -0.265625 -0.765625q-0.25 -0.328125 -0.828125 -0.546875q-0.375 -0.140625 -1.65625 -0.453125q-1.28125 -0.3125 -1.796875 -0.578125q-0.671875 -0.34375 -1.0 -0.859375q-0.328125 -0.53125 -0.328125 -1.171875q0 -0.703125 0.390625 -1.3125q0.40625 -0.609375 1.171875 -0.921875q0.78125 -0.328125 1.71875 -0.328125q1.03125 0 1.8125 0.34375q0.796875 0.328125 1.21875 0.984375q0.4375 0.640625 0.46875 1.453125l-1.1875 0.09375q-0.09375 -0.890625 -0.640625 -1.328125q-0.546875 -0.453125 -1.625 -0.453125q-1.109375 0 -1.625 0.40625q-0.515625 0.40625 -0.515625 0.984375q0 0.5 0.359375 0.828125q0.359375 0.328125 1.859375 0.671875q1.5 0.328125 2.0625 0.578125q0.8125 0.375 1.1875 0.953125q0.390625 0.578125 0.390625 1.328125q0 0.734375 -0.421875 1.390625q-0.421875 0.65625 -1.21875 1.03125q-0.796875 0.359375 -1.796875 0.359375q-1.265625 0 -2.125 -0.359375q-0.84375 -0.375 -1.328125 -1.109375q-0.484375 -0.75 -0.515625 -1.671875zm8.8585205 0.53125l1.140625 -0.15625q0.203125 0.96875 0.671875 1.40625q0.46875 0.421875 1.15625 0.421875q0.796875 0 1.34375 -0.546875q0.5625 -0.5625 0.5625 -1.390625q0 -0.796875 -0.515625 -1.296875q-0.5 -0.515625 -1.296875 -0.515625q-0.328125 0 -0.8125 0.125l0.125 -1.0q0.125 0.015625 0.1875 0.015625q0.734375 0 1.3125 -0.375q0.59375 -0.390625 0.59375 -1.1875q0 -0.625 -0.4375 -1.03125q-0.421875 -0.421875 -1.09375 -0.421875q-0.671875 0 -1.109375 0.421875q-0.4375 0.421875 -0.578125 1.25l-1.140625 -0.203125q0.21875 -1.140625 0.953125 -1.765625q0.75 -0.640625 1.84375 -0.640625q0.765625 0 1.40625 0.328125q0.640625 0.328125 0.984375 0.890625q0.34375 0.5625 0.34375 1.203125q0 0.59375 -0.328125 1.09375q-0.328125 0.5 -0.953125 0.78125q0.8125 0.203125 1.265625 0.796875q0.46875 0.59375 0.46875 1.5q0 1.21875 -0.890625 2.078125q-0.890625 0.84375 -2.25 0.84375q-1.21875 0 -2.03125 -0.734375q-0.8125 -0.734375 -0.921875 -1.890625z" fill-rule="nonzero"></path><path fill="#000000" fill-opacity="0.0" d="m1124.8081 217.46194l39.590576 -53.417328" fill-rule="nonzero"></path><path stroke="#000000" stroke-width="2.0" stroke-linejoin="round" stroke-linecap="butt" stroke-dasharray="8.0,6.0" d="m1124.8081 217.46194l32.445312 -43.77655" fill-rule="evenodd"></path><path fill="#000000" stroke="#000000" stroke-width="2.0" stroke-linecap="butt" d="m1159.9073 175.65242l2.7503662 -9.25882l-8.05835 5.324768z" fill-rule="evenodd"></path><path fill="#e06666" d="m880.7428 490.83203l139.43304 0l0 27.496033l-139.43304 0z" fill-rule="nonzero"></path><path stroke="#000000" stroke-width="2.0" stroke-linejoin="round" stroke-linecap="butt" d="m880.7428 490.83203l139.43304 0l0 27.496033l-139.43304 0z" fill-rule="nonzero"></path><path fill="#000000" d="m890.3209 506.3957l1.171875 -0.109375q0.078125 0.703125 0.375 1.15625q0.3125 0.4375 0.9375 0.71875q0.640625 0.265625 1.4375 0.265625q0.703125 0 1.234375 -0.203125q0.546875 -0.203125 0.8125 -0.5625q0.265625 -0.375 0.265625 -0.8125q0 -0.4375 -0.265625 -0.765625q-0.25 -0.328125 -0.828125 -0.546875q-0.375 -0.140625 -1.65625 -0.453125q-1.28125 -0.3125 -1.796875 -0.578125q-0.671875 -0.34375 -1.0 -0.859375q-0.328125 -0.53125 -0.328125 -1.171875q0 -0.703125 0.390625 -1.3125q0.40625 -0.609375 1.171875 -0.921875q0.78125 -0.328125 1.71875 -0.328125q1.03125 0 1.8125 0.34375q0.796875 0.328125 1.21875 0.984375q0.4375 0.640625 0.46875 1.453125l-1.1875 0.09375q-0.09375 -0.890625 -0.640625 -1.328125q-0.546875 -0.453125 -1.625 -0.453125q-1.109375 0 -1.625 0.40625q-0.515625 0.40625 -0.515625 0.984375q0 0.5 0.359375 0.828125q0.359375 0.328125 1.859375 0.671875q1.5 0.328125 2.0625 0.578125q0.8125 0.375 1.1875 0.953125q0.390625 0.578125 0.390625 1.328125q0 0.734375 -0.421875 1.390625q-0.421875 0.65625 -1.21875 1.03125q-0.796875 0.359375 -1.796875 0.359375q-1.265625 0 -2.125 -0.359375q-0.84375 -0.375 -1.328125 -1.109375q-0.484375 -0.75 -0.515625 -1.671875zm8.858459 0.53125l1.140625 -0.15625q0.203125 0.96875 0.671875 1.40625q0.46875 0.421875 1.15625 0.421875q0.796875 0 1.34375 -0.546875q0.5625 -0.5625 0.5625 -1.390625q0 -0.796875 -0.515625 -1.296875q-0.5 -0.515625 -1.296875 -0.515625q-0.328125 0 -0.8125 0.125l0.125 -1.0q0.125 0.015625 0.1875 0.015625q0.734375 0 1.3125 -0.375q0.59375 -0.390625 0.59375 -1.1875q0 -0.625 -0.4375 -1.03125q-0.421875 -0.421875 -1.09375 -0.421875q-0.671875 0 -1.109375 0.421875q-0.4375 0.421875 -0.578125 1.25l-1.140625 -0.203125q0.21875 -1.140625 0.953125 -1.765625q0.75 -0.640625 1.84375 -0.640625q0.765625 0 1.40625 0.328125q0.640625 0.328125 0.984375 0.890625q0.34375 0.5625 0.34375 1.203125q0 0.59375 -0.328125 1.09375q-0.328125 0.5 -0.953125 0.78125q0.8125 0.203125 1.265625 0.796875q0.46875 0.59375 0.46875 1.5q0 1.21875 -0.890625 2.078125q-0.890625 0.84375 -2.25 0.84375q-1.21875 0 -2.03125 -0.734375q-0.8125 -0.734375 -0.921875 -1.890625z" fill-rule="nonzero"></path></g></svg>

